<?xml version="1.0" encoding="UTF-8" standalone="no"?>
<!DOCTYPE svg PUBLIC "-//W3C//DTD SVG 1.1//EN"
 "http://www.w3.org/Graphics/SVG/1.1/DTD/svg11.dtd">
<!-- Generated by graphviz version 2.40.1 (20161225.0304)
 -->
<!-- Title: models_diagram Pages: 1 -->
<svg width="1773pt" height="1066pt"
 viewBox="0.00 0.00 1773.33 1066.09" xmlns="http://www.w3.org/2000/svg" xmlns:xlink="http://www.w3.org/1999/xlink">
<g id="graph0" class="graph" transform="scale(1 1) rotate(0) translate(36 1030.0894)">
<title>models_diagram</title>
<polygon fill="#ffffff" stroke="transparent" points="-36,36 -36,-1030.0894 1737.331,-1030.0894 1737.331,36 -36,36"/>
<!-- Map -->
<g id="node1" class="node">
<title>Map</title>
<polygon fill="#add8e6" stroke="transparent" points="0,-766.5447 0,-788.5447 126,-788.5447 126,-766.5447 0,-766.5447"/>
<polygon fill="none" stroke="#000000" points="0,-766.5447 0,-788.5447 126,-788.5447 126,-766.5447 0,-766.5447"/>
<text text-anchor="start" x="53.836" y="-775.5447" font-family="Times,serif" font-weight="bold" font-size="10.00" fill="#000000">Map</text>
<polygon fill="none" stroke="#000000" points="0,-744.5447 0,-766.5447 126,-766.5447 126,-744.5447 0,-744.5447"/>
<text text-anchor="start" x="5" y="-753.5447" font-family="Times,serif" text-decoration="underline" font-size="10.00" fill="#000000">id</text>
<text text-anchor="start" x="12.779" y="-753.5447" font-family="Times,serif" font-size="10.00" fill="#000000">: NUMBER</text>
<polygon fill="none" stroke="#000000" points="0,-722.5447 0,-744.5447 126,-744.5447 126,-722.5447 0,-722.5447"/>
<text text-anchor="start" x="5" y="-730.5447" font-family="Times,serif" font-size="10.00" fill="#000000">scriptName: STRING</text>
<polygon fill="none" stroke="#000000" points="0,-700.5447 0,-722.5447 126,-722.5447 126,-700.5447 0,-700.5447"/>
<text text-anchor="start" x="5" y="-708.5447" font-family="Times,serif" font-size="10.00" fill="#000000">fileName: STRING</text>
<polygon fill="none" stroke="#000000" points="0,-678.5447 0,-700.5447 126,-700.5447 126,-678.5447 0,-678.5447"/>
<text text-anchor="start" x="5" y="-686.5447" font-family="Times,serif" font-size="10.00" fill="#000000">description: STRING</text>
<polygon fill="none" stroke="#000000" points="0,-656.5447 0,-678.5447 126,-678.5447 126,-656.5447 0,-656.5447"/>
<text text-anchor="start" x="5" y="-664.5447" font-family="Times,serif" font-size="10.00" fill="#000000">mapHardness: NUMBER</text>
<polygon fill="none" stroke="#000000" points="0,-634.5447 0,-656.5447 126,-656.5447 126,-634.5447 0,-634.5447"/>
<text text-anchor="start" x="5" y="-642.5447" font-family="Times,serif" font-size="10.00" fill="#000000">gravity: NUMBER</text>
<polygon fill="none" stroke="#000000" points="0,-612.5447 0,-634.5447 126,-634.5447 126,-612.5447 0,-612.5447"/>
<text text-anchor="start" x="5" y="-620.5447" font-family="Times,serif" font-size="10.00" fill="#000000">tidalStrength: NUMBER</text>
<polygon fill="none" stroke="#000000" points="0,-590.5447 0,-612.5447 126,-612.5447 126,-590.5447 0,-590.5447"/>
<text text-anchor="start" x="5" y="-598.5447" font-family="Times,serif" font-size="10.00" fill="#000000">maxMetal: NUMBER</text>
<polygon fill="none" stroke="#000000" points="0,-568.5447 0,-590.5447 126,-590.5447 126,-568.5447 0,-568.5447"/>
<text text-anchor="start" x="5" y="-576.5447" font-family="Times,serif" font-size="10.00" fill="#000000">extractorRadius: NUMBER</text>
<polygon fill="none" stroke="#000000" points="0,-546.5447 0,-568.5447 126,-568.5447 126,-546.5447 0,-546.5447"/>
<text text-anchor="start" x="5" y="-554.5447" font-family="Times,serif" font-size="10.00" fill="#000000">minWind: NUMBER</text>
<polygon fill="none" stroke="#000000" points="0,-524.5447 0,-546.5447 126,-546.5447 126,-524.5447 0,-524.5447"/>
<text text-anchor="start" x="5" y="-532.5447" font-family="Times,serif" font-size="10.00" fill="#000000">maxWind: NUMBER</text>
<polygon fill="none" stroke="#000000" points="0,-502.5447 0,-524.5447 126,-524.5447 126,-502.5447 0,-502.5447"/>
<text text-anchor="start" x="5" y="-510.5447" font-family="Times,serif" font-size="10.00" fill="#000000">startPositions: JSON</text>
<polygon fill="none" stroke="#000000" points="0,-480.5447 0,-502.5447 126,-502.5447 126,-480.5447 0,-480.5447"/>
<text text-anchor="start" x="5" y="-488.5447" font-family="Times,serif" font-size="10.00" fill="#000000">width: NUMBER</text>
<polygon fill="none" stroke="#000000" points="0,-458.5447 0,-480.5447 126,-480.5447 126,-458.5447 0,-458.5447"/>
<text text-anchor="start" x="5" y="-466.5447" font-family="Times,serif" font-size="10.00" fill="#000000">height: NUMBER</text>
<polygon fill="none" stroke="#000000" points="0,-436.5447 0,-458.5447 126,-458.5447 126,-436.5447 0,-436.5447"/>
<text text-anchor="start" x="5" y="-444.5447" font-family="Times,serif" font-size="10.00" fill="#000000">minDepth: NUMBER</text>
<polygon fill="none" stroke="#000000" points="0,-414.5447 0,-436.5447 126,-436.5447 126,-414.5447 0,-414.5447"/>
<text text-anchor="start" x="5" y="-422.5447" font-family="Times,serif" font-size="10.00" fill="#000000">maxDepth: NUMBER</text>
<polygon fill="none" stroke="#000000" points="0,-392.5447 0,-414.5447 126,-414.5447 126,-392.5447 0,-392.5447"/>
<text text-anchor="start" x="5" y="-400.5447" font-family="Times,serif" font-size="10.00" fill="#000000">name: STRING</text>
<polygon fill="none" stroke="#000000" points="0,-370.5447 0,-392.5447 126,-392.5447 126,-370.5447 0,-370.5447"/>
<text text-anchor="start" x="5" y="-378.5447" font-family="Times,serif" font-size="10.00" fill="#000000">shortname: STRING</text>
<polygon fill="none" stroke="#000000" points="0,-348.5447 0,-370.5447 126,-370.5447 126,-348.5447 0,-348.5447"/>
<text text-anchor="start" x="5" y="-356.5447" font-family="Times,serif" font-size="10.00" fill="#000000">author: STRING</text>
<polygon fill="none" stroke="#000000" points="0,-326.5447 0,-348.5447 126,-348.5447 126,-326.5447 0,-326.5447"/>
<text text-anchor="start" x="5" y="-334.5447" font-family="Times,serif" font-size="10.00" fill="#000000">version: STRING</text>
<polygon fill="none" stroke="#000000" points="0,-304.5447 0,-326.5447 126,-326.5447 126,-304.5447 0,-304.5447"/>
<text text-anchor="start" x="5" y="-312.5447" font-family="Times,serif" font-size="10.00" fill="#000000">mapfile: STRING</text>
<polygon fill="none" stroke="#000000" points="0,-282.5447 0,-304.5447 126,-304.5447 126,-282.5447 0,-282.5447"/>
<text text-anchor="start" x="5" y="-290.5447" font-family="Times,serif" font-size="10.00" fill="#000000">modtype: NUMBER</text>
<polygon fill="none" stroke="#000000" points="0,-260.5447 0,-282.5447 126,-282.5447 126,-260.5447 0,-260.5447"/>
<text text-anchor="start" x="5" y="-268.5447" font-family="Times,serif" font-size="10.00" fill="#000000">notDeformable: BOOLEAN</text>
<polygon fill="none" stroke="#000000" points="0,-238.5447 0,-260.5447 126,-260.5447 126,-238.5447 0,-238.5447"/>
<text text-anchor="start" x="5" y="-246.5447" font-family="Times,serif" font-size="10.00" fill="#000000">voidWater: BOOLEAN</text>
<polygon fill="none" stroke="#000000" points="0,-216.5447 0,-238.5447 126,-238.5447 126,-216.5447 0,-216.5447"/>
<text text-anchor="start" x="5" y="-224.5447" font-family="Times,serif" font-size="10.00" fill="#000000">voidGround: BOOLEAN</text>
<polygon fill="none" stroke="#000000" points="0,-194.5447 0,-216.5447 126,-216.5447 126,-194.5447 0,-194.5447"/>
<text text-anchor="start" x="4.8185" y="-202.5447" font-family="Times,serif" font-size="10.00" fill="#000000">autoShowMetal: BOOLEAN</text>
<polygon fill="none" stroke="#000000" points="0,-172.5447 0,-194.5447 126,-194.5447 126,-172.5447 0,-172.5447"/>
<text text-anchor="start" x="5" y="-180.5447" font-family="Times,serif" font-size="10.00" fill="#000000">createdAt: DATE</text>
<polygon fill="none" stroke="#000000" points="0,-150.5447 0,-172.5447 126,-172.5447 126,-150.5447 0,-150.5447"/>
<text text-anchor="start" x="5" y="-158.5447" font-family="Times,serif" font-size="10.00" fill="#000000">updatedAt: DATE</text>
</g>
<!-- Demo -->
<g id="node2" class="node">
<title>Demo</title>
<polygon fill="#add8e6" stroke="transparent" points="819.7828,-392.9306 819.7828,-414.9306 939.7828,-414.9306 939.7828,-392.9306 819.7828,-392.9306"/>
<polygon fill="none" stroke="#000000" points="819.7828,-392.9306 819.7828,-414.9306 939.7828,-414.9306 939.7828,-392.9306 819.7828,-392.9306"/>
<text text-anchor="start" x="867.5643" y="-401.9306" font-family="Times,serif" font-weight="bold" font-size="10.00" fill="#000000">Demo</text>
<polygon fill="none" stroke="#000000" points="819.7828,-370.9306 819.7828,-392.9306 939.7828,-392.9306 939.7828,-370.9306 819.7828,-370.9306"/>
<text text-anchor="start" x="824.7828" y="-379.9306" font-family="Times,serif" text-decoration="underline" font-size="10.00" fill="#000000">id</text>
<text text-anchor="start" x="832.5618" y="-379.9306" font-family="Times,serif" font-size="10.00" fill="#000000">: STRING</text>
<polygon fill="none" stroke="#000000" points="819.7828,-348.9306 819.7828,-370.9306 939.7828,-370.9306 939.7828,-348.9306 819.7828,-348.9306"/>
<text text-anchor="start" x="824.7828" y="-356.9306" font-family="Times,serif" font-size="10.00" fill="#000000">fileName: STRING</text>
<polygon fill="none" stroke="#000000" points="819.7828,-326.9306 819.7828,-348.9306 939.7828,-348.9306 939.7828,-326.9306 819.7828,-326.9306"/>
<text text-anchor="start" x="824.7828" y="-334.9306" font-family="Times,serif" font-size="10.00" fill="#000000">engineVersion: STRING</text>
<polygon fill="none" stroke="#000000" points="819.7828,-304.9306 819.7828,-326.9306 939.7828,-326.9306 939.7828,-304.9306 819.7828,-304.9306"/>
<text text-anchor="start" x="824.7828" y="-312.9306" font-family="Times,serif" font-size="10.00" fill="#000000">gameVersion: STRING</text>
<polygon fill="none" stroke="#000000" points="819.7828,-282.9306 819.7828,-304.9306 939.7828,-304.9306 939.7828,-282.9306 819.7828,-282.9306"/>
<text text-anchor="start" x="824.7828" y="-290.9306" font-family="Times,serif" font-size="10.00" fill="#000000">startTime: DATE</text>
<polygon fill="none" stroke="#000000" points="819.7828,-260.9306 819.7828,-282.9306 939.7828,-282.9306 939.7828,-260.9306 819.7828,-260.9306"/>
<text text-anchor="start" x="824.7828" y="-268.9306" font-family="Times,serif" font-size="10.00" fill="#000000">durationMs: NUMBER</text>
<polygon fill="none" stroke="#000000" points="819.7828,-238.9306 819.7828,-260.9306 939.7828,-260.9306 939.7828,-238.9306 819.7828,-238.9306"/>
<text text-anchor="start" x="824.6513" y="-246.9306" font-family="Times,serif" font-size="10.00" fill="#000000">fullDurationMs: NUMBER</text>
<polygon fill="none" stroke="#000000" points="819.7828,-216.9306 819.7828,-238.9306 939.7828,-238.9306 939.7828,-216.9306 819.7828,-216.9306"/>
<text text-anchor="start" x="824.7828" y="-224.9306" font-family="Times,serif" font-size="10.00" fill="#000000">hostSettings: JSON</text>
<polygon fill="none" stroke="#000000" points="819.7828,-194.9306 819.7828,-216.9306 939.7828,-216.9306 939.7828,-194.9306 819.7828,-194.9306"/>
<text text-anchor="start" x="824.7828" y="-202.9306" font-family="Times,serif" font-size="10.00" fill="#000000">gameSettings: JSON</text>
<polygon fill="none" stroke="#000000" points="819.7828,-172.9306 819.7828,-194.9306 939.7828,-194.9306 939.7828,-172.9306 819.7828,-172.9306"/>
<text text-anchor="start" x="824.7828" y="-180.9306" font-family="Times,serif" font-size="10.00" fill="#000000">mapSettings: JSON</text>
<polygon fill="none" stroke="#000000" points="819.7828,-150.9306 819.7828,-172.9306 939.7828,-172.9306 939.7828,-150.9306 819.7828,-150.9306"/>
<text text-anchor="start" x="824.7828" y="-158.9306" font-family="Times,serif" font-size="10.00" fill="#000000">createdAt: DATE</text>
<polygon fill="none" stroke="#000000" points="819.7828,-128.9306 819.7828,-150.9306 939.7828,-150.9306 939.7828,-128.9306 819.7828,-128.9306"/>
<text text-anchor="start" x="824.7828" y="-136.9306" font-family="Times,serif" font-size="10.00" fill="#000000">updatedAt: DATE</text>
<polygon fill="none" stroke="#000000" points="819.7828,-106.9306 819.7828,-128.9306 939.7828,-128.9306 939.7828,-106.9306 819.7828,-106.9306"/>
<text text-anchor="start" x="824.7828" y="-115.9306" font-family="Times,serif" font-style="italic" text-decoration="underline" font-size="10.00" fill="#000000">mapId</text>
<text text-anchor="start" x="850.3298" y="-115.9306" font-family="Times,serif" font-size="10.00" fill="#000000">: NUMBER</text>
</g>
<!-- Demo&#45;&gt;Map -->
<g id="edge1" class="edge">
<title>Demo&#45;&gt;Map</title>
<path fill="none" stroke="#000000" stroke-width=".75" d="M813.8935,-277.7594C659.8207,-317.111 277.6234,-414.7279 126.222,-453.3972"/>
<polygon fill="#000000" stroke="#000000" stroke-width=".75" points="813.9095,-277.7554 820.391,-278.8865 816.8161,-277.0129 819.7228,-276.2705 819.7228,-276.2705 819.7228,-276.2705 816.8161,-277.0129 819.0547,-273.6545 813.9095,-277.7554 813.9095,-277.7554"/>
</g>
<!-- AllyTeam -->
<g id="node3" class="node">
<title>AllyTeam</title>
<polygon fill="#add8e6" stroke="transparent" points="820.7828,-744.1588 820.7828,-766.1588 938.7828,-766.1588 938.7828,-744.1588 820.7828,-744.1588"/>
<polygon fill="none" stroke="#000000" points="820.7828,-744.1588 820.7828,-766.1588 938.7828,-766.1588 938.7828,-744.1588 820.7828,-744.1588"/>
<text text-anchor="start" x="859.5113" y="-753.1588" font-family="Times,serif" font-weight="bold" font-size="10.00" fill="#000000">AllyTeam</text>
<polygon fill="none" stroke="#000000" points="820.7828,-722.1588 820.7828,-744.1588 938.7828,-744.1588 938.7828,-722.1588 820.7828,-722.1588"/>
<text text-anchor="start" x="825.7828" y="-731.1588" font-family="Times,serif" text-decoration="underline" font-size="10.00" fill="#000000">id</text>
<text text-anchor="start" x="833.5618" y="-731.1588" font-family="Times,serif" font-size="10.00" fill="#000000">: NUMBER</text>
<polygon fill="none" stroke="#000000" points="820.7828,-700.1588 820.7828,-722.1588 938.7828,-722.1588 938.7828,-700.1588 820.7828,-700.1588"/>
<text text-anchor="start" x="825.7828" y="-708.1588" font-family="Times,serif" font-size="10.00" fill="#000000">allyTeamId: NUMBER</text>
<polygon fill="none" stroke="#000000" points="820.7828,-678.1588 820.7828,-700.1588 938.7828,-700.1588 938.7828,-678.1588 820.7828,-678.1588"/>
<text text-anchor="start" x="825.7828" y="-686.1588" font-family="Times,serif" font-size="10.00" fill="#000000">startBox: JSON</text>
<polygon fill="none" stroke="#000000" points="820.7828,-656.1588 820.7828,-678.1588 938.7828,-678.1588 938.7828,-656.1588 820.7828,-656.1588"/>
<text text-anchor="start" x="825.4903" y="-664.1588" font-family="Times,serif" font-size="10.00" fill="#000000">winningTeam: BOOLEAN</text>
<polygon fill="none" stroke="#000000" points="820.7828,-634.1588 820.7828,-656.1588 938.7828,-656.1588 938.7828,-634.1588 820.7828,-634.1588"/>
<text text-anchor="start" x="825.7828" y="-642.1588" font-family="Times,serif" font-size="10.00" fill="#000000">createdAt: DATE</text>
<polygon fill="none" stroke="#000000" points="820.7828,-612.1588 820.7828,-634.1588 938.7828,-634.1588 938.7828,-612.1588 820.7828,-612.1588"/>
<text text-anchor="start" x="825.7828" y="-620.1588" font-family="Times,serif" font-size="10.00" fill="#000000">updatedAt: DATE</text>
<polygon fill="none" stroke="#000000" points="820.7828,-590.1588 820.7828,-612.1588 938.7828,-612.1588 938.7828,-590.1588 820.7828,-590.1588"/>
<text text-anchor="start" x="825.7828" y="-599.1588" font-family="Times,serif" font-style="italic" text-decoration="underline" font-size="10.00" fill="#000000">demoId</text>
<text text-anchor="start" x="856.3298" y="-599.1588" font-family="Times,serif" font-size="10.00" fill="#000000">: STRING</text>
</g>
<!-- AllyTeam&#45;&gt;Demo -->
<g id="edge2" class="edge">
<title>AllyTeam&#45;&gt;Demo</title>
<path fill="none" stroke="#000000" stroke-width=".75" d="M879.7828,-583.9245C879.7828,-534.1538 879.7828,-471.8107 879.7828,-415.2051"/>
<polygon fill="#000000" stroke="#000000" stroke-width=".75" points="879.7829,-583.9305 877.0828,-589.9304 879.7829,-586.9305 879.7828,-589.9305 879.7828,-589.9305 879.7828,-589.9305 879.7829,-586.9305 882.4828,-589.9305 879.7829,-583.9305 879.7829,-583.9305"/>
</g>
<!-- Player -->
<g id="node4" class="node">
<title>Player</title>
<polygon fill="#add8e6" stroke="transparent" points="1215.5905,-972.0894 1215.5905,-994.0894 1337.5905,-994.0894 1337.5905,-972.0894 1215.5905,-972.0894"/>
<polygon fill="none" stroke="#000000" points="1215.5905,-972.0894 1215.5905,-994.0894 1337.5905,-994.0894 1337.5905,-972.0894 1215.5905,-972.0894"/>
<text text-anchor="start" x="1263.818" y="-981.0894" font-family="Times,serif" font-weight="bold" font-size="10.00" fill="#000000">Player</text>
<polygon fill="none" stroke="#000000" points="1215.5905,-950.0894 1215.5905,-972.0894 1337.5905,-972.0894 1337.5905,-950.0894 1215.5905,-950.0894"/>
<text text-anchor="start" x="1220.5905" y="-959.0894" font-family="Times,serif" text-decoration="underline" font-size="10.00" fill="#000000">id</text>
<text text-anchor="start" x="1228.3695" y="-959.0894" font-family="Times,serif" font-size="10.00" fill="#000000">: NUMBER</text>
<polygon fill="none" stroke="#000000" points="1215.5905,-928.0894 1215.5905,-950.0894 1337.5905,-950.0894 1337.5905,-928.0894 1215.5905,-928.0894"/>
<text text-anchor="start" x="1220.5905" y="-936.0894" font-family="Times,serif" font-size="10.00" fill="#000000">playerId: NUMBER</text>
<polygon fill="none" stroke="#000000" points="1215.5905,-906.0894 1215.5905,-928.0894 1337.5905,-928.0894 1337.5905,-906.0894 1215.5905,-906.0894"/>
<text text-anchor="start" x="1220.5905" y="-914.0894" font-family="Times,serif" font-size="10.00" fill="#000000">name: STRING</text>
<polygon fill="none" stroke="#000000" points="1215.5905,-884.0894 1215.5905,-906.0894 1337.5905,-906.0894 1337.5905,-884.0894 1215.5905,-884.0894"/>
<text text-anchor="start" x="1220.5905" y="-892.0894" font-family="Times,serif" font-size="10.00" fill="#000000">teamId: NUMBER</text>
<polygon fill="none" stroke="#000000" points="1215.5905,-862.0894 1215.5905,-884.0894 1337.5905,-884.0894 1337.5905,-862.0894 1215.5905,-862.0894"/>
<text text-anchor="start" x="1220.5905" y="-870.0894" font-family="Times,serif" font-size="10.00" fill="#000000">handicap: NUMBER</text>
<polygon fill="none" stroke="#000000" points="1215.5905,-840.0894 1215.5905,-862.0894 1337.5905,-862.0894 1337.5905,-840.0894 1215.5905,-840.0894"/>
<text text-anchor="start" x="1220.5905" y="-848.0894" font-family="Times,serif" font-size="10.00" fill="#000000">faction: STRING</text>
<polygon fill="none" stroke="#000000" points="1215.5905,-818.0894 1215.5905,-840.0894 1337.5905,-840.0894 1337.5905,-818.0894 1215.5905,-818.0894"/>
<text text-anchor="start" x="1220.5905" y="-826.0894" font-family="Times,serif" font-size="10.00" fill="#000000">countryCode: STRING</text>
<polygon fill="none" stroke="#000000" points="1215.5905,-796.0894 1215.5905,-818.0894 1337.5905,-818.0894 1337.5905,-796.0894 1215.5905,-796.0894"/>
<text text-anchor="start" x="1220.5905" y="-804.0894" font-family="Times,serif" font-size="10.00" fill="#000000">rgbColor: JSON</text>
<polygon fill="none" stroke="#000000" points="1215.5905,-774.0894 1215.5905,-796.0894 1337.5905,-796.0894 1337.5905,-774.0894 1215.5905,-774.0894"/>
<text text-anchor="start" x="1220.5905" y="-782.0894" font-family="Times,serif" font-size="10.00" fill="#000000">rank: NUMBER</text>
<polygon fill="none" stroke="#000000" points="1215.5905,-752.0894 1215.5905,-774.0894 1337.5905,-774.0894 1337.5905,-752.0894 1215.5905,-752.0894"/>
<text text-anchor="start" x="1220.35" y="-760.0894" font-family="Times,serif" font-size="10.00" fill="#000000">skillUncertainty: NUMBER</text>
<polygon fill="none" stroke="#000000" points="1215.5905,-730.0894 1215.5905,-752.0894 1337.5905,-752.0894 1337.5905,-730.0894 1215.5905,-730.0894"/>
<text text-anchor="start" x="1220.5905" y="-738.0894" font-family="Times,serif" font-size="10.00" fill="#000000">skill: STRING</text>
<polygon fill="none" stroke="#000000" points="1215.5905,-708.0894 1215.5905,-730.0894 1337.5905,-730.0894 1337.5905,-708.0894 1215.5905,-708.0894"/>
<text text-anchor="start" x="1220.5905" y="-716.0894" font-family="Times,serif" font-size="10.00" fill="#000000">startPos: JSON</text>
<polygon fill="none" stroke="#000000" points="1215.5905,-686.0894 1215.5905,-708.0894 1337.5905,-708.0894 1337.5905,-686.0894 1215.5905,-686.0894"/>
<text text-anchor="start" x="1220.5905" y="-694.0894" font-family="Times,serif" font-size="10.00" fill="#000000">createdAt: DATE</text>
<polygon fill="none" stroke="#000000" points="1215.5905,-664.0894 1215.5905,-686.0894 1337.5905,-686.0894 1337.5905,-664.0894 1215.5905,-664.0894"/>
<text text-anchor="start" x="1220.5905" y="-672.0894" font-family="Times,serif" font-size="10.00" fill="#000000">updatedAt: DATE</text>
<polygon fill="none" stroke="#000000" points="1215.5905,-642.0894 1215.5905,-664.0894 1337.5905,-664.0894 1337.5905,-642.0894 1215.5905,-642.0894"/>
<text text-anchor="start" x="1220.5905" y="-651.0894" font-family="Times,serif" font-style="italic" text-decoration="underline" font-size="10.00" fill="#000000">allyTeamId</text>
<text text-anchor="start" x="1266.6825" y="-651.0894" font-family="Times,serif" font-size="10.00" fill="#000000">: NUMBER</text>
<polygon fill="none" stroke="#000000" points="1215.5905,-620.0894 1215.5905,-642.0894 1337.5905,-642.0894 1337.5905,-620.0894 1215.5905,-620.0894"/>
<text text-anchor="start" x="1220.5905" y="-629.0894" font-family="Times,serif" font-style="italic" text-decoration="underline" font-size="10.00" fill="#000000">userId</text>
<text text-anchor="start" x="1245.5765" y="-629.0894" font-family="Times,serif" font-size="10.00" fill="#000000">: NUMBER</text>
</g>
<!-- Player&#45;&gt;AllyTeam -->
<g id="edge3" class="edge">
<title>Player&#45;&gt;AllyTeam</title>
<path fill="none" stroke="#000000" stroke-width=".75" d="M1209.6311,-785.333C1133.8313,-760.7042 1011.4992,-720.9561 939.0382,-697.4121"/>
<polygon fill="#000000" stroke="#000000" stroke-width=".75" points="1209.7525,-785.3724 1214.6245,-789.7944 1212.6057,-786.2995 1215.4589,-787.2266 1215.4589,-787.2266 1215.4589,-787.2266 1212.6057,-786.2995 1216.2933,-784.6587 1209.7525,-785.3724 1209.7525,-785.3724"/>
</g>
<!-- User -->
<g id="node7" class="node">
<title>User</title>
<polygon fill="#add8e6" stroke="transparent" points="1460.831,-546.5447 1460.831,-568.5447 1582.831,-568.5447 1582.831,-546.5447 1460.831,-546.5447"/>
<polygon fill="none" stroke="#000000" points="1460.831,-546.5447 1460.831,-568.5447 1582.831,-568.5447 1582.831,-546.5447 1460.831,-546.5447"/>
<text text-anchor="start" x="1512.393" y="-555.5447" font-family="Times,serif" font-weight="bold" font-size="10.00" fill="#000000">User</text>
<polygon fill="none" stroke="#000000" points="1460.831,-524.5447 1460.831,-546.5447 1582.831,-546.5447 1582.831,-524.5447 1460.831,-524.5447"/>
<text text-anchor="start" x="1465.831" y="-533.5447" font-family="Times,serif" text-decoration="underline" font-size="10.00" fill="#000000">id</text>
<text text-anchor="start" x="1473.61" y="-533.5447" font-family="Times,serif" font-size="10.00" fill="#000000">: NUMBER</text>
<polygon fill="none" stroke="#000000" points="1460.831,-502.5447 1460.831,-524.5447 1582.831,-524.5447 1582.831,-502.5447 1460.831,-502.5447"/>
<text text-anchor="start" x="1465.831" y="-510.5447" font-family="Times,serif" font-size="10.00" fill="#000000">username: STRING</text>
<polygon fill="none" stroke="#000000" points="1460.831,-480.5447 1460.831,-502.5447 1582.831,-502.5447 1582.831,-480.5447 1460.831,-480.5447"/>
<text text-anchor="start" x="1465.831" y="-488.5447" font-family="Times,serif" font-size="10.00" fill="#000000">countryCode: STRING</text>
<polygon fill="none" stroke="#000000" points="1460.831,-458.5447 1460.831,-480.5447 1582.831,-480.5447 1582.831,-458.5447 1460.831,-458.5447"/>
<text text-anchor="start" x="1465.831" y="-466.5447" font-family="Times,serif" font-size="10.00" fill="#000000">rank: NUMBER</text>
<polygon fill="none" stroke="#000000" points="1460.831,-436.5447 1460.831,-458.5447 1582.831,-458.5447 1582.831,-436.5447 1460.831,-436.5447"/>
<text text-anchor="start" x="1465.831" y="-444.5447" font-family="Times,serif" font-size="10.00" fill="#000000">skill: STRING</text>
<polygon fill="none" stroke="#000000" points="1460.831,-414.5447 1460.831,-436.5447 1582.831,-436.5447 1582.831,-414.5447 1460.831,-414.5447"/>
<text text-anchor="start" x="1465.5905" y="-422.5447" font-family="Times,serif" font-size="10.00" fill="#000000">skillUncertainty: NUMBER</text>
<polygon fill="none" stroke="#000000" points="1460.831,-392.5447 1460.831,-414.5447 1582.831,-414.5447 1582.831,-392.5447 1460.831,-392.5447"/>
<text text-anchor="start" x="1465.831" y="-400.5447" font-family="Times,serif" font-size="10.00" fill="#000000">createdAt: DATE</text>
<polygon fill="none" stroke="#000000" points="1460.831,-370.5447 1460.831,-392.5447 1582.831,-392.5447 1582.831,-370.5447 1460.831,-370.5447"/>
<text text-anchor="start" x="1465.831" y="-378.5447" font-family="Times,serif" font-size="10.00" fill="#000000">updatedAt: DATE</text>
</g>
<!-- Player&#45;&gt;User -->
<g id="edge4" class="edge">
<title>Player&#45;&gt;User</title>
<path fill="none" stroke="#000000" stroke-width=".75" d="M1341.39,-717.9005C1378.3485,-667.0315 1424.3958,-603.6528 1460.7228,-553.653"/>
<polygon fill="#000000" stroke="#000000" stroke-width=".75" points="1341.3691,-717.9293 1335.658,-721.1963 1339.6058,-720.3563 1337.8424,-722.7834 1337.8424,-722.7834 1337.8424,-722.7834 1339.6058,-720.3563 1340.0268,-724.3704 1341.3691,-717.9293 1341.3691,-717.9293"/>
</g>
<!-- Spectator -->
<g id="node5" class="node">
<title>Spectator</title>
<polygon fill="#add8e6" stroke="transparent" points="1215.5905,-242 1215.5905,-264 1337.5905,-264 1337.5905,-242 1215.5905,-242"/>
<polygon fill="none" stroke="#000000" points="1215.5905,-242 1215.5905,-264 1337.5905,-264 1337.5905,-242 1215.5905,-242"/>
<text text-anchor="start" x="1257.709" y="-251" font-family="Times,serif" font-weight="bold" font-size="10.00" fill="#000000">Spectator</text>
<polygon fill="none" stroke="#000000" points="1215.5905,-220 1215.5905,-242 1337.5905,-242 1337.5905,-220 1215.5905,-220"/>
<text text-anchor="start" x="1220.5905" y="-229" font-family="Times,serif" text-decoration="underline" font-size="10.00" fill="#000000">id</text>
<text text-anchor="start" x="1228.3695" y="-229" font-family="Times,serif" font-size="10.00" fill="#000000">: NUMBER</text>
<polygon fill="none" stroke="#000000" points="1215.5905,-198 1215.5905,-220 1337.5905,-220 1337.5905,-198 1215.5905,-198"/>
<text text-anchor="start" x="1220.5905" y="-206" font-family="Times,serif" font-size="10.00" fill="#000000">playerId: NUMBER</text>
<polygon fill="none" stroke="#000000" points="1215.5905,-176 1215.5905,-198 1337.5905,-198 1337.5905,-176 1215.5905,-176"/>
<text text-anchor="start" x="1220.5905" y="-184" font-family="Times,serif" font-size="10.00" fill="#000000">name: STRING</text>
<polygon fill="none" stroke="#000000" points="1215.5905,-154 1215.5905,-176 1337.5905,-176 1337.5905,-154 1215.5905,-154"/>
<text text-anchor="start" x="1220.5905" y="-162" font-family="Times,serif" font-size="10.00" fill="#000000">countryCode: STRING</text>
<polygon fill="none" stroke="#000000" points="1215.5905,-132 1215.5905,-154 1337.5905,-154 1337.5905,-132 1215.5905,-132"/>
<text text-anchor="start" x="1220.5905" y="-140" font-family="Times,serif" font-size="10.00" fill="#000000">rank: NUMBER</text>
<polygon fill="none" stroke="#000000" points="1215.5905,-110 1215.5905,-132 1337.5905,-132 1337.5905,-110 1215.5905,-110"/>
<text text-anchor="start" x="1220.35" y="-118" font-family="Times,serif" font-size="10.00" fill="#000000">skillUncertainty: NUMBER</text>
<polygon fill="none" stroke="#000000" points="1215.5905,-88 1215.5905,-110 1337.5905,-110 1337.5905,-88 1215.5905,-88"/>
<text text-anchor="start" x="1220.5905" y="-96" font-family="Times,serif" font-size="10.00" fill="#000000">skill: STRING</text>
<polygon fill="none" stroke="#000000" points="1215.5905,-66 1215.5905,-88 1337.5905,-88 1337.5905,-66 1215.5905,-66"/>
<text text-anchor="start" x="1220.5905" y="-74" font-family="Times,serif" font-size="10.00" fill="#000000">createdAt: DATE</text>
<polygon fill="none" stroke="#000000" points="1215.5905,-44 1215.5905,-66 1337.5905,-66 1337.5905,-44 1215.5905,-44"/>
<text text-anchor="start" x="1220.5905" y="-52" font-family="Times,serif" font-size="10.00" fill="#000000">updatedAt: DATE</text>
<polygon fill="none" stroke="#000000" points="1215.5905,-22 1215.5905,-44 1337.5905,-44 1337.5905,-22 1215.5905,-22"/>
<text text-anchor="start" x="1220.5905" y="-31" font-family="Times,serif" font-style="italic" text-decoration="underline" font-size="10.00" fill="#000000">demoId</text>
<text text-anchor="start" x="1251.1375" y="-31" font-family="Times,serif" font-size="10.00" fill="#000000">: STRING</text>
<polygon fill="none" stroke="#000000" points="1215.5905,0 1215.5905,-22 1337.5905,-22 1337.5905,0 1215.5905,0"/>
<text text-anchor="start" x="1220.5905" y="-9" font-family="Times,serif" font-style="italic" text-decoration="underline" font-size="10.00" fill="#000000">userId</text>
<text text-anchor="start" x="1245.5765" y="-9" font-family="Times,serif" font-size="10.00" fill="#000000">: NUMBER</text>
</g>
<!-- Spectator&#45;&gt;Demo -->
<g id="edge5" class="edge">
<title>Spectator&#45;&gt;Demo</title>
<path fill="none" stroke="#000000" stroke-width=".75" d="M1209.6568,-153.7481C1134.1961,-178.2667 1012.5949,-217.7774 940.0081,-241.3622"/>
<polygon fill="#000000" stroke="#000000" stroke-width=".75" points="1209.7525,-153.717 1216.2933,-154.4307 1212.6057,-152.7899 1215.4589,-151.8629 1215.4589,-151.8629 1215.4589,-151.8629 1212.6057,-152.7899 1214.6245,-149.295 1209.7525,-153.717 1209.7525,-153.717"/>
</g>
<!-- Spectator&#45;&gt;User -->
<g id="edge6" class="edge">
<title>Spectator&#45;&gt;User</title>
<path fill="none" stroke="#000000" stroke-width=".75" d="M1341.39,-221.189C1378.3485,-272.0579 1424.3958,-335.4367 1460.7228,-385.4364"/>
<polygon fill="#000000" stroke="#000000" stroke-width=".75" points="1341.3691,-221.1602 1340.0268,-214.719 1339.6058,-218.7331 1337.8424,-216.3061 1337.8424,-216.3061 1337.8424,-216.3061 1339.6058,-218.7331 1335.658,-217.8931 1341.3691,-221.1602 1341.3691,-221.1602"/>
</g>
<!-- AI -->
<g id="node6" class="node">
<title>AI</title>
<polygon fill="#add8e6" stroke="transparent" points="653.8442,-925.5327 653.8442,-947.5327 757.8442,-947.5327 757.8442,-925.5327 653.8442,-925.5327"/>
<polygon fill="none" stroke="#000000" points="653.8442,-925.5327 653.8442,-947.5327 757.8442,-947.5327 757.8442,-925.5327 653.8442,-925.5327"/>
<text text-anchor="start" x="700.5702" y="-934.5327" font-family="Times,serif" font-weight="bold" font-size="10.00" fill="#000000">AI</text>
<polygon fill="none" stroke="#000000" points="653.8442,-903.5327 653.8442,-925.5327 757.8442,-925.5327 757.8442,-903.5327 653.8442,-903.5327"/>
<text text-anchor="start" x="658.8442" y="-912.5327" font-family="Times,serif" text-decoration="underline" font-size="10.00" fill="#000000">id</text>
<text text-anchor="start" x="666.6232" y="-912.5327" font-family="Times,serif" font-size="10.00" fill="#000000">: NUMBER</text>
<polygon fill="none" stroke="#000000" points="653.8442,-881.5327 653.8442,-903.5327 757.8442,-903.5327 757.8442,-881.5327 653.8442,-881.5327"/>
<text text-anchor="start" x="658.8442" y="-889.5327" font-family="Times,serif" font-size="10.00" fill="#000000">aiId: NUMBER</text>
<polygon fill="none" stroke="#000000" points="653.8442,-859.5327 653.8442,-881.5327 757.8442,-881.5327 757.8442,-859.5327 653.8442,-859.5327"/>
<text text-anchor="start" x="658.8442" y="-867.5327" font-family="Times,serif" font-size="10.00" fill="#000000">shortName: STRING</text>
<polygon fill="none" stroke="#000000" points="653.8442,-837.5327 653.8442,-859.5327 757.8442,-859.5327 757.8442,-837.5327 653.8442,-837.5327"/>
<text text-anchor="start" x="658.8442" y="-845.5327" font-family="Times,serif" font-size="10.00" fill="#000000">name: STRING</text>
<polygon fill="none" stroke="#000000" points="653.8442,-815.5327 653.8442,-837.5327 757.8442,-837.5327 757.8442,-815.5327 653.8442,-815.5327"/>
<text text-anchor="start" x="658.8442" y="-823.5327" font-family="Times,serif" font-size="10.00" fill="#000000">host: BOOLEAN</text>
<polygon fill="none" stroke="#000000" points="653.8442,-793.5327 653.8442,-815.5327 757.8442,-815.5327 757.8442,-793.5327 653.8442,-793.5327"/>
<text text-anchor="start" x="658.8442" y="-801.5327" font-family="Times,serif" font-size="10.00" fill="#000000">startPos: JSON</text>
<polygon fill="none" stroke="#000000" points="653.8442,-771.5327 653.8442,-793.5327 757.8442,-793.5327 757.8442,-771.5327 653.8442,-771.5327"/>
<text text-anchor="start" x="658.8442" y="-779.5327" font-family="Times,serif" font-size="10.00" fill="#000000">handicap: NUMBER</text>
<polygon fill="none" stroke="#000000" points="653.8442,-749.5327 653.8442,-771.5327 757.8442,-771.5327 757.8442,-749.5327 653.8442,-749.5327"/>
<text text-anchor="start" x="658.8442" y="-757.5327" font-family="Times,serif" font-size="10.00" fill="#000000">faction: STRING</text>
<polygon fill="none" stroke="#000000" points="653.8442,-727.5327 653.8442,-749.5327 757.8442,-749.5327 757.8442,-727.5327 653.8442,-727.5327"/>
<text text-anchor="start" x="658.8442" y="-735.5327" font-family="Times,serif" font-size="10.00" fill="#000000">rgbColor: JSON</text>
<polygon fill="none" stroke="#000000" points="653.8442,-705.5327 653.8442,-727.5327 757.8442,-727.5327 757.8442,-705.5327 653.8442,-705.5327"/>
<text text-anchor="start" x="658.8442" y="-713.5327" font-family="Times,serif" font-size="10.00" fill="#000000">createdAt: DATE</text>
<polygon fill="none" stroke="#000000" points="653.8442,-683.5327 653.8442,-705.5327 757.8442,-705.5327 757.8442,-683.5327 653.8442,-683.5327"/>
<text text-anchor="start" x="658.8442" y="-691.5327" font-family="Times,serif" font-size="10.00" fill="#000000">updatedAt: DATE</text>
<polygon fill="none" stroke="#000000" points="653.8442,-661.5327 653.8442,-683.5327 757.8442,-683.5327 757.8442,-661.5327 653.8442,-661.5327"/>
<text text-anchor="start" x="658.7717" y="-670.5327" font-family="Times,serif" font-style="italic" text-decoration="underline" font-size="10.00" fill="#000000">allyTeamId</text>
<text text-anchor="start" x="704.8637" y="-670.5327" font-family="Times,serif" font-size="10.00" fill="#000000">: NUMBER</text>
</g>
<!-- AI&#45;&gt;AllyTeam -->
<g id="edge7" class="edge">
<title>AI&#45;&gt;AllyTeam</title>
<path fill="none" stroke="#000000" stroke-width=".75" d="M763.1739,-762.8802C781.607,-749.4877 802.058,-734.6292 820.6202,-721.143"/>
<polygon fill="#000000" stroke="#000000" stroke-width=".75" points="762.8856,-763.0896 756.4445,-764.432 760.4586,-764.853 758.0315,-766.6163 758.0315,-766.6163 758.0315,-766.6163 760.4586,-764.853 759.6185,-768.8007 762.8856,-763.0896 762.8856,-763.0896"/>
</g>
<!-- Alias -->
<g id="node8" class="node">
<title>Alias</title>
<polygon fill="#add8e6" stroke="transparent" points="1618.831,-513.5447 1618.831,-535.5447 1701.831,-535.5447 1701.831,-513.5447 1618.831,-513.5447"/>
<polygon fill="none" stroke="#000000" points="1618.831,-513.5447 1618.831,-535.5447 1701.831,-535.5447 1701.831,-513.5447 1618.831,-513.5447"/>
<text text-anchor="start" x="1649.7785" y="-522.5447" font-family="Times,serif" font-weight="bold" font-size="10.00" fill="#000000">Alias</text>
<polygon fill="none" stroke="#000000" points="1618.831,-491.5447 1618.831,-513.5447 1701.831,-513.5447 1701.831,-491.5447 1618.831,-491.5447"/>
<text text-anchor="start" x="1623.831" y="-500.5447" font-family="Times,serif" text-decoration="underline" font-size="10.00" fill="#000000">id</text>
<text text-anchor="start" x="1631.61" y="-500.5447" font-family="Times,serif" font-size="10.00" fill="#000000">: NUMBER</text>
<polygon fill="none" stroke="#000000" points="1618.831,-469.5447 1618.831,-491.5447 1701.831,-491.5447 1701.831,-469.5447 1618.831,-469.5447"/>
<text text-anchor="start" x="1623.831" y="-477.5447" font-family="Times,serif" font-size="10.00" fill="#000000">alias: STRING</text>
<polygon fill="none" stroke="#000000" points="1618.831,-447.5447 1618.831,-469.5447 1701.831,-469.5447 1701.831,-447.5447 1618.831,-447.5447"/>
<text text-anchor="start" x="1623.831" y="-455.5447" font-family="Times,serif" font-size="10.00" fill="#000000">createdAt: DATE</text>
<polygon fill="none" stroke="#000000" points="1618.831,-425.5447 1618.831,-447.5447 1701.831,-447.5447 1701.831,-425.5447 1618.831,-425.5447"/>
<text text-anchor="start" x="1623.536" y="-433.5447" font-family="Times,serif" font-size="10.00" fill="#000000">updatedAt: DATE</text>
<polygon fill="none" stroke="#000000" points="1618.831,-403.5447 1618.831,-425.5447 1701.831,-425.5447 1701.831,-403.5447 1618.831,-403.5447"/>
<text text-anchor="start" x="1623.8115" y="-412.5447" font-family="Times,serif" font-style="italic" text-decoration="underline" font-size="10.00" fill="#000000">userId</text>
<text text-anchor="start" x="1648.7975" y="-412.5447" font-family="Times,serif" font-size="10.00" fill="#000000">: NUMBER</text>
</g>
<!-- Alias&#45;&gt;User -->
<g id="edge8" class="edge">
<title>Alias&#45;&gt;User</title>
<path fill="none" stroke="#000000" stroke-width=".75" d="M1612.009,-469.5447C1602.6753,-469.5447 1592.7691,-469.5447 1583.0701,-469.5447"/>
<polygon fill="#000000" stroke="#000000" stroke-width=".75" points="1612.052,-469.5448 1618.052,-472.2447 1615.052,-469.5448 1618.052,-469.5447 1618.052,-469.5447 1618.052,-469.5447 1615.052,-469.5448 1618.052,-466.8447 1612.052,-469.5448 1612.052,-469.5448"/>
</g>
</g>
</svg>
