<svg width="1920" height="30" viewBox="0 0 1920 30" fill="none" xmlns="http://www.w3.org/2000/svg">
<path d="M1241.24 10.4695L1226.14 8.7548L1218 12.7983L1229.4 18.9924L1242.29 18.875L1241.24 10.4695Z" fill="black"/>
<path d="M763.566 20.9719L748.619 15.6572L745.297 12.9999L739.318 12.9999L735 17.9824L754.266 26.2866L763.566 20.9719Z" fill="black"/>
<path d="M1340.42 20.0006C1338.87 18.8926 1333.72 16.2205 1325.49 14.3961L1323.15 10.3885L1336.99 9.73298L1344.93 6.28294L1349.22 14.5712L1340.42 20.0006Z" fill="black"/>
<path d="M1251.95 19.7016L1255.5 22.4568L1251.95 27L1246.78 27L1246.78 22.4568L1245.3 11.5638L1253.12 12.2366L1251.95 19.7016Z" fill="black"/>
<path d="M92.5248 7.93669L252.671 4.6525L272.281 8.93667L329.422 4.6525L551.69 11.6285L568.29 8.59236L585.912 11.6285L604.519 5.97888L614.486 7.97286L620.799 14.6195L622.793 19.2721L632.5 18.6104L637.422 15.6195L645.396 6.97888L652.705 11.2992L660.015 12.6285L686.927 7.64354L691.911 6.97887L713.5 11.2992L728.5 8.97285L740.42 6.97887L762.017 12.6285L776.275 15.5923L787.571 11.2721L803.19 11.2721L799.532 3.62847L842.422 6.97886L862.357 11.2991L885.283 10.6104L920.17 4.62846L1082.64 20.248L1096.26 10.6104L1195.28 16.5923L1220.53 4.62843L1256.74 8.94872L1261.5 12.9367L1266.5 9.5923L1271.36 8.28406L1279 12.9367L1302.26 9.5923L1341.14 2.24793L1493.89 6.59228L1506.39 10.2479L1816.47 3.01791L1826.47 8.99984L1923 3.0179L1923 -0.000164562L-2.99992 3.81469e-06L-3 7.9367L92.5248 7.93669Z" fill="black"/>
</svg>
