<svg width="32" height="32" viewBox="0 0 32 32" fill="none" xmlns="http://www.w3.org/2000/svg">
<g filter="url(#filter0_di_352_984)">
<path d="M16 15.7619L24.7692 21L28 21L28 17.9697L16.9231 11L15.0769 11L4 17.9697L4 21L8.15385 21L16 15.7619Z" fill="url(#paint0_linear_352_984)"/>
<path d="M17.0674 10.5L17.1895 10.5771L28.2666 17.5469L28.5 17.6934L28.5 21.5L24.6309 21.5L24.5127 21.4297L16.0137 16.3535L8.43164 21.416L8.30566 21.5L3.5 21.5L3.5 17.6934L3.7334 17.5469L14.8105 10.5771L14.9326 10.5L17.0674 10.5Z" stroke="#140E08"/>
</g>
<defs>
<filter id="filter0_di_352_984" x="3" y="10" width="26" height="13" filterUnits="userSpaceOnUse" color-interpolation-filters="sRGB">
<feFlood flood-opacity="0" result="BackgroundImageFix"/>
<feColorMatrix in="SourceAlpha" type="matrix" values="0 0 0 0 0 0 0 0 0 0 0 0 0 0 0 0 0 0 127 0" result="hardAlpha"/>
<feOffset dy="1"/>
<feColorMatrix type="matrix" values="0 0 0 0 0.152941 0 0 0 0 0.0823529 0 0 0 0 0.0117647 0 0 0 1 0"/>
<feBlend mode="normal" in2="BackgroundImageFix" result="effect1_dropShadow_352_984"/>
<feBlend mode="normal" in="SourceGraphic" in2="effect1_dropShadow_352_984" result="shape"/>
<feColorMatrix in="SourceAlpha" type="matrix" values="0 0 0 0 0 0 0 0 0 0 0 0 0 0 0 0 0 0 127 0" result="hardAlpha"/>
<feOffset dy="-2"/>
<feComposite in2="hardAlpha" operator="arithmetic" k2="-1" k3="1"/>
<feColorMatrix type="matrix" values="0 0 0 0 0.416667 0 0 0 0 0.175 0 0 0 0 0 0 0 0 1 0"/>
<feBlend mode="normal" in2="shape" result="effect2_innerShadow_352_984"/>
</filter>
<linearGradient id="paint0_linear_352_984" x1="4" y1="19.5015" x2="21.9243" y2="7.32603" gradientUnits="userSpaceOnUse">
<stop offset="0.145833" stop-color="#C8A039"/>
<stop offset="0.328125" stop-color="#E9C786"/>
<stop offset="0.9375" stop-color="#A6681F"/>
</linearGradient>
</defs>
</svg>
