<svg width="32" height="32" viewBox="0 0 32 32" fill="none" xmlns="http://www.w3.org/2000/svg">
<g filter="url(#filter0_di_352_987)">
<path d="M16 12.7619L24.7692 18L28 18L28 14.9697L16.9231 8L15.0769 8L4 14.9697L4 18L8.15385 18L16 12.7619Z" fill="url(#paint0_linear_352_987)"/>
<path d="M17.0674 7.5L17.1895 7.57715L28.2666 14.5469L28.5 14.6934L28.5 18.5L24.6309 18.5L24.5127 18.4297L16.0137 13.3535L8.43164 18.416L8.30566 18.5L3.5 18.5L3.5 14.6934L3.7334 14.5469L14.8105 7.57715L14.9326 7.5L17.0674 7.5Z" stroke="#140E08"/>
</g>
<g filter="url(#filter1_di_352_987)">
<path d="M16 18.7619L24.7692 24L28 24L28 20.9697L16.9231 14L15.0769 14L4 20.9697L4 24L8.15385 24L16 18.7619Z" fill="url(#paint1_linear_352_987)"/>
<path d="M17.0674 13.5L17.1895 13.5771L28.2666 20.5469L28.5 20.6934L28.5 24.5L24.6309 24.5L24.5127 24.4297L16.0137 19.3535L8.43164 24.416L8.30566 24.5L3.5 24.5L3.5 20.6934L3.7334 20.5469L14.8105 13.5771L14.9326 13.5L17.0674 13.5Z" stroke="#140E08"/>
</g>
<defs>
<filter id="filter0_di_352_987" x="3" y="7" width="26" height="13" filterUnits="userSpaceOnUse" color-interpolation-filters="sRGB">
<feFlood flood-opacity="0" result="BackgroundImageFix"/>
<feColorMatrix in="SourceAlpha" type="matrix" values="0 0 0 0 0 0 0 0 0 0 0 0 0 0 0 0 0 0 127 0" result="hardAlpha"/>
<feOffset dy="1"/>
<feColorMatrix type="matrix" values="0 0 0 0 0.152941 0 0 0 0 0.0823529 0 0 0 0 0.0117647 0 0 0 1 0"/>
<feBlend mode="normal" in2="BackgroundImageFix" result="effect1_dropShadow_352_987"/>
<feBlend mode="normal" in="SourceGraphic" in2="effect1_dropShadow_352_987" result="shape"/>
<feColorMatrix in="SourceAlpha" type="matrix" values="0 0 0 0 0 0 0 0 0 0 0 0 0 0 0 0 0 0 127 0" result="hardAlpha"/>
<feOffset dy="-2"/>
<feComposite in2="hardAlpha" operator="arithmetic" k2="-1" k3="1"/>
<feColorMatrix type="matrix" values="0 0 0 0 0.416667 0 0 0 0 0.175 0 0 0 0 0 0 0 0 1 0"/>
<feBlend mode="normal" in2="shape" result="effect2_innerShadow_352_987"/>
</filter>
<filter id="filter1_di_352_987" x="3" y="13" width="26" height="13" filterUnits="userSpaceOnUse" color-interpolation-filters="sRGB">
<feFlood flood-opacity="0" result="BackgroundImageFix"/>
<feColorMatrix in="SourceAlpha" type="matrix" values="0 0 0 0 0 0 0 0 0 0 0 0 0 0 0 0 0 0 127 0" result="hardAlpha"/>
<feOffset dy="1"/>
<feColorMatrix type="matrix" values="0 0 0 0 0.152941 0 0 0 0 0.0823529 0 0 0 0 0.0117647 0 0 0 1 0"/>
<feBlend mode="normal" in2="BackgroundImageFix" result="effect1_dropShadow_352_987"/>
<feBlend mode="normal" in="SourceGraphic" in2="effect1_dropShadow_352_987" result="shape"/>
<feColorMatrix in="SourceAlpha" type="matrix" values="0 0 0 0 0 0 0 0 0 0 0 0 0 0 0 0 0 0 127 0" result="hardAlpha"/>
<feOffset dy="-2"/>
<feComposite in2="hardAlpha" operator="arithmetic" k2="-1" k3="1"/>
<feColorMatrix type="matrix" values="0 0 0 0 0.416667 0 0 0 0 0.175 0 0 0 0 0 0 0 0 1 0"/>
<feBlend mode="normal" in2="shape" result="effect2_innerShadow_352_987"/>
</filter>
<linearGradient id="paint0_linear_352_987" x1="4" y1="16.5015" x2="21.9243" y2="4.32603" gradientUnits="userSpaceOnUse">
<stop offset="0.145833" stop-color="#C8A039"/>
<stop offset="0.328125" stop-color="#E9C786"/>
<stop offset="0.9375" stop-color="#A6681F"/>
</linearGradient>
<linearGradient id="paint1_linear_352_987" x1="4" y1="22.5015" x2="21.9243" y2="10.326" gradientUnits="userSpaceOnUse">
<stop offset="0.145833" stop-color="#C8A039"/>
<stop offset="0.328125" stop-color="#E9C786"/>
<stop offset="0.9375" stop-color="#A6681F"/>
</linearGradient>
</defs>
</svg>
