<svg width="32" height="32" viewBox="0 0 32 32" fill="none" xmlns="http://www.w3.org/2000/svg">
<g filter="url(#filter0_di_352_991)">
<path d="M16 8.7619L24.7692 14L28 14L28 10.9697L16.9231 4L15.0769 4L4 10.9697L4 14L8.15385 14L16 8.7619Z" fill="url(#paint0_linear_352_991)"/>
<path d="M17.0674 3.5L17.1895 3.57715L28.2666 10.5469L28.5 10.6934L28.5 14.5L24.6309 14.5L24.5127 14.4297L16.0137 9.35352L8.43164 14.416L8.30566 14.5L3.5 14.5L3.5 10.6934L3.7334 10.5469L14.8105 3.57715L14.9326 3.5L17.0674 3.5Z" stroke="#140E08"/>
</g>
<g filter="url(#filter1_di_352_991)">
<path d="M16 14.7619L24.7692 20L28 20L28 16.9697L16.9231 10L15.0769 10L4 16.9697L4 20L8.15385 20L16 14.7619Z" fill="url(#paint1_linear_352_991)"/>
<path d="M17.0674 9.5L17.1895 9.57715L28.2666 16.5469L28.5 16.6934L28.5 20.5L24.6309 20.5L24.5127 20.4297L16.0137 15.3535L8.43164 20.416L8.30566 20.5L3.5 20.5L3.5 16.6934L3.7334 16.5469L14.8105 9.57715L14.9326 9.5L17.0674 9.5Z" stroke="#140E08"/>
</g>
<g filter="url(#filter2_di_352_991)">
<path d="M16 20.7619L24.7692 26L28 26L28 22.9697L16.9231 16L15.0769 16L4 22.9697L4 26L8.15385 26L16 20.7619Z" fill="url(#paint2_linear_352_991)"/>
<path d="M17.0674 15.5L17.1895 15.5771L28.2666 22.5469L28.5 22.6934L28.5 26.5L24.6309 26.5L24.5127 26.4297L16.0137 21.3535L8.43164 26.416L8.30566 26.5L3.5 26.5L3.5 22.6934L3.7334 22.5469L14.8105 15.5771L14.9326 15.5L17.0674 15.5Z" stroke="#140E08"/>
</g>
<defs>
<filter id="filter0_di_352_991" x="3" y="3" width="26" height="13" filterUnits="userSpaceOnUse" color-interpolation-filters="sRGB">
<feFlood flood-opacity="0" result="BackgroundImageFix"/>
<feColorMatrix in="SourceAlpha" type="matrix" values="0 0 0 0 0 0 0 0 0 0 0 0 0 0 0 0 0 0 127 0" result="hardAlpha"/>
<feOffset dy="1"/>
<feColorMatrix type="matrix" values="0 0 0 0 0.152941 0 0 0 0 0.0823529 0 0 0 0 0.0117647 0 0 0 1 0"/>
<feBlend mode="normal" in2="BackgroundImageFix" result="effect1_dropShadow_352_991"/>
<feBlend mode="normal" in="SourceGraphic" in2="effect1_dropShadow_352_991" result="shape"/>
<feColorMatrix in="SourceAlpha" type="matrix" values="0 0 0 0 0 0 0 0 0 0 0 0 0 0 0 0 0 0 127 0" result="hardAlpha"/>
<feOffset dy="-2"/>
<feComposite in2="hardAlpha" operator="arithmetic" k2="-1" k3="1"/>
<feColorMatrix type="matrix" values="0 0 0 0 0.416667 0 0 0 0 0.175 0 0 0 0 0 0 0 0 1 0"/>
<feBlend mode="normal" in2="shape" result="effect2_innerShadow_352_991"/>
</filter>
<filter id="filter1_di_352_991" x="3" y="9" width="26" height="13" filterUnits="userSpaceOnUse" color-interpolation-filters="sRGB">
<feFlood flood-opacity="0" result="BackgroundImageFix"/>
<feColorMatrix in="SourceAlpha" type="matrix" values="0 0 0 0 0 0 0 0 0 0 0 0 0 0 0 0 0 0 127 0" result="hardAlpha"/>
<feOffset dy="1"/>
<feColorMatrix type="matrix" values="0 0 0 0 0.152941 0 0 0 0 0.0823529 0 0 0 0 0.0117647 0 0 0 1 0"/>
<feBlend mode="normal" in2="BackgroundImageFix" result="effect1_dropShadow_352_991"/>
<feBlend mode="normal" in="SourceGraphic" in2="effect1_dropShadow_352_991" result="shape"/>
<feColorMatrix in="SourceAlpha" type="matrix" values="0 0 0 0 0 0 0 0 0 0 0 0 0 0 0 0 0 0 127 0" result="hardAlpha"/>
<feOffset dy="-2"/>
<feComposite in2="hardAlpha" operator="arithmetic" k2="-1" k3="1"/>
<feColorMatrix type="matrix" values="0 0 0 0 0.416667 0 0 0 0 0.175 0 0 0 0 0 0 0 0 1 0"/>
<feBlend mode="normal" in2="shape" result="effect2_innerShadow_352_991"/>
</filter>
<filter id="filter2_di_352_991" x="3" y="15" width="26" height="13" filterUnits="userSpaceOnUse" color-interpolation-filters="sRGB">
<feFlood flood-opacity="0" result="BackgroundImageFix"/>
<feColorMatrix in="SourceAlpha" type="matrix" values="0 0 0 0 0 0 0 0 0 0 0 0 0 0 0 0 0 0 127 0" result="hardAlpha"/>
<feOffset dy="1"/>
<feColorMatrix type="matrix" values="0 0 0 0 0.152941 0 0 0 0 0.0823529 0 0 0 0 0.0117647 0 0 0 1 0"/>
<feBlend mode="normal" in2="BackgroundImageFix" result="effect1_dropShadow_352_991"/>
<feBlend mode="normal" in="SourceGraphic" in2="effect1_dropShadow_352_991" result="shape"/>
<feColorMatrix in="SourceAlpha" type="matrix" values="0 0 0 0 0 0 0 0 0 0 0 0 0 0 0 0 0 0 127 0" result="hardAlpha"/>
<feOffset dy="-2"/>
<feComposite in2="hardAlpha" operator="arithmetic" k2="-1" k3="1"/>
<feColorMatrix type="matrix" values="0 0 0 0 0.416667 0 0 0 0 0.175 0 0 0 0 0 0 0 0 1 0"/>
<feBlend mode="normal" in2="shape" result="effect2_innerShadow_352_991"/>
</filter>
<linearGradient id="paint0_linear_352_991" x1="4" y1="12.5015" x2="21.9243" y2="0.326028" gradientUnits="userSpaceOnUse">
<stop offset="0.145833" stop-color="#C8A039"/>
<stop offset="0.328125" stop-color="#E9C786"/>
<stop offset="0.9375" stop-color="#A6681F"/>
</linearGradient>
<linearGradient id="paint1_linear_352_991" x1="4" y1="18.5015" x2="21.9243" y2="6.32603" gradientUnits="userSpaceOnUse">
<stop offset="0.145833" stop-color="#C8A039"/>
<stop offset="0.328125" stop-color="#E9C786"/>
<stop offset="0.9375" stop-color="#A6681F"/>
</linearGradient>
<linearGradient id="paint2_linear_352_991" x1="4" y1="24.5015" x2="21.9243" y2="12.326" gradientUnits="userSpaceOnUse">
<stop offset="0.145833" stop-color="#C8A039"/>
<stop offset="0.328125" stop-color="#E9C786"/>
<stop offset="0.9375" stop-color="#A6681F"/>
</linearGradient>
</defs>
</svg>
