<svg width="32" height="32" viewBox="0 0 32 32" fill="none" xmlns="http://www.w3.org/2000/svg">
<g clip-path="url(#clip0_352_1003)">
<g filter="url(#filter0_di_352_1003)">
<path d="M16 5.7619L24.7692 11L28 11L28 7.9697L16.9231 1L15.0769 1L4 7.9697L4 11L8.15385 11L16 5.7619Z" fill="url(#paint0_linear_352_1003)"/>
<path d="M17.0674 0.5L17.1895 0.577148L28.2666 7.54687L28.5 7.69336L28.5 11.5L24.6309 11.5L24.5127 11.4297L16.0137 6.35352L8.43164 11.416L8.30566 11.5L3.5 11.5L3.5 7.69336L3.7334 7.54688L14.8105 0.577148L14.9326 0.5L17.0674 0.5Z" stroke="#140E08"/>
</g>
<g filter="url(#filter1_di_352_1003)">
<path d="M16 11.7619L24.7692 17L28 17L28 13.9697L16.9231 7L15.0769 7L4 13.9697L4 17L8.15385 17L16 11.7619Z" fill="url(#paint1_linear_352_1003)"/>
<path d="M17.0674 6.5L17.1895 6.57715L28.2666 13.5469L28.5 13.6934L28.5 17.5L24.6309 17.5L24.5127 17.4297L16.0137 12.3535L8.43164 17.416L8.30566 17.5L3.5 17.5L3.5 13.6934L3.7334 13.5469L14.8105 6.57715L14.9326 6.5L17.0674 6.5Z" stroke="#140E08"/>
</g>
<g filter="url(#filter2_di_352_1003)">
<path d="M16 17.7619L24.7692 23L28 23L28 19.9697L16.9231 13L15.0769 13L4 19.9697L4 23L8.15385 23L16 17.7619Z" fill="url(#paint2_linear_352_1003)"/>
<path d="M17.0674 12.5L17.1895 12.5771L28.2666 19.5469L28.5 19.6934L28.5 23.5L24.6309 23.5L24.5127 23.4297L16.0137 18.3535L8.43164 23.416L8.30566 23.5L3.5 23.5L3.5 19.6934L3.7334 19.5469L14.8105 12.5771L14.9326 12.5L17.0674 12.5Z" stroke="#140E08"/>
</g>
<g filter="url(#filter3_di_352_1003)">
<path d="M16.9565 19H15.1304L6 25.2222L15.1304 31H17.2L26.5 25.2222L16.9565 19Z" fill="url(#paint3_linear_352_1003)"/>
<path d="M16.9565 19H15.1304L6 25.2222L15.1304 31H17.2L26.5 25.2222L16.9565 19Z" stroke="#140E08"/>
</g>
</g>
<defs>
<filter id="filter0_di_352_1003" x="3" y="0" width="26" height="13" filterUnits="userSpaceOnUse" color-interpolation-filters="sRGB">
<feFlood flood-opacity="0" result="BackgroundImageFix"/>
<feColorMatrix in="SourceAlpha" type="matrix" values="0 0 0 0 0 0 0 0 0 0 0 0 0 0 0 0 0 0 127 0" result="hardAlpha"/>
<feOffset dy="1"/>
<feColorMatrix type="matrix" values="0 0 0 0 0.152941 0 0 0 0 0.0823529 0 0 0 0 0.0117647 0 0 0 1 0"/>
<feBlend mode="normal" in2="BackgroundImageFix" result="effect1_dropShadow_352_1003"/>
<feBlend mode="normal" in="SourceGraphic" in2="effect1_dropShadow_352_1003" result="shape"/>
<feColorMatrix in="SourceAlpha" type="matrix" values="0 0 0 0 0 0 0 0 0 0 0 0 0 0 0 0 0 0 127 0" result="hardAlpha"/>
<feOffset dy="-2"/>
<feComposite in2="hardAlpha" operator="arithmetic" k2="-1" k3="1"/>
<feColorMatrix type="matrix" values="0 0 0 0 0.416667 0 0 0 0 0.175 0 0 0 0 0 0 0 0 1 0"/>
<feBlend mode="normal" in2="shape" result="effect2_innerShadow_352_1003"/>
</filter>
<filter id="filter1_di_352_1003" x="3" y="6" width="26" height="13" filterUnits="userSpaceOnUse" color-interpolation-filters="sRGB">
<feFlood flood-opacity="0" result="BackgroundImageFix"/>
<feColorMatrix in="SourceAlpha" type="matrix" values="0 0 0 0 0 0 0 0 0 0 0 0 0 0 0 0 0 0 127 0" result="hardAlpha"/>
<feOffset dy="1"/>
<feColorMatrix type="matrix" values="0 0 0 0 0.152941 0 0 0 0 0.0823529 0 0 0 0 0.0117647 0 0 0 1 0"/>
<feBlend mode="normal" in2="BackgroundImageFix" result="effect1_dropShadow_352_1003"/>
<feBlend mode="normal" in="SourceGraphic" in2="effect1_dropShadow_352_1003" result="shape"/>
<feColorMatrix in="SourceAlpha" type="matrix" values="0 0 0 0 0 0 0 0 0 0 0 0 0 0 0 0 0 0 127 0" result="hardAlpha"/>
<feOffset dy="-2"/>
<feComposite in2="hardAlpha" operator="arithmetic" k2="-1" k3="1"/>
<feColorMatrix type="matrix" values="0 0 0 0 0.416667 0 0 0 0 0.175 0 0 0 0 0 0 0 0 1 0"/>
<feBlend mode="normal" in2="shape" result="effect2_innerShadow_352_1003"/>
</filter>
<filter id="filter2_di_352_1003" x="3" y="12" width="26" height="13" filterUnits="userSpaceOnUse" color-interpolation-filters="sRGB">
<feFlood flood-opacity="0" result="BackgroundImageFix"/>
<feColorMatrix in="SourceAlpha" type="matrix" values="0 0 0 0 0 0 0 0 0 0 0 0 0 0 0 0 0 0 127 0" result="hardAlpha"/>
<feOffset dy="1"/>
<feColorMatrix type="matrix" values="0 0 0 0 0.152941 0 0 0 0 0.0823529 0 0 0 0 0.0117647 0 0 0 1 0"/>
<feBlend mode="normal" in2="BackgroundImageFix" result="effect1_dropShadow_352_1003"/>
<feBlend mode="normal" in="SourceGraphic" in2="effect1_dropShadow_352_1003" result="shape"/>
<feColorMatrix in="SourceAlpha" type="matrix" values="0 0 0 0 0 0 0 0 0 0 0 0 0 0 0 0 0 0 127 0" result="hardAlpha"/>
<feOffset dy="-2"/>
<feComposite in2="hardAlpha" operator="arithmetic" k2="-1" k3="1"/>
<feColorMatrix type="matrix" values="0 0 0 0 0.416667 0 0 0 0 0.175 0 0 0 0 0 0 0 0 1 0"/>
<feBlend mode="normal" in2="shape" result="effect2_innerShadow_352_1003"/>
</filter>
<filter id="filter3_di_352_1003" x="5.08936" y="18.5" width="22.3418" height="14" filterUnits="userSpaceOnUse" color-interpolation-filters="sRGB">
<feFlood flood-opacity="0" result="BackgroundImageFix"/>
<feColorMatrix in="SourceAlpha" type="matrix" values="0 0 0 0 0 0 0 0 0 0 0 0 0 0 0 0 0 0 127 0" result="hardAlpha"/>
<feOffset dy="1"/>
<feColorMatrix type="matrix" values="0 0 0 0 0.2 0 0 0 0 0.2 0 0 0 0 0.2 0 0 0 1 0"/>
<feBlend mode="normal" in2="BackgroundImageFix" result="effect1_dropShadow_352_1003"/>
<feBlend mode="normal" in="SourceGraphic" in2="effect1_dropShadow_352_1003" result="shape"/>
<feColorMatrix in="SourceAlpha" type="matrix" values="0 0 0 0 0 0 0 0 0 0 0 0 0 0 0 0 0 0 127 0" result="hardAlpha"/>
<feOffset dy="-2"/>
<feComposite in2="hardAlpha" operator="arithmetic" k2="-1" k3="1"/>
<feColorMatrix type="matrix" values="0 0 0 0 0.304167 0 0 0 0 0.304167 0 0 0 0 0.304167 0 0 0 1 0"/>
<feBlend mode="normal" in2="shape" result="effect2_innerShadow_352_1003"/>
</filter>
<linearGradient id="paint0_linear_352_1003" x1="4" y1="9.50149" x2="21.9243" y2="-2.67397" gradientUnits="userSpaceOnUse">
<stop offset="0.145833" stop-color="#C8A039"/>
<stop offset="0.328125" stop-color="#E9C786"/>
<stop offset="0.9375" stop-color="#A6681F"/>
</linearGradient>
<linearGradient id="paint1_linear_352_1003" x1="4" y1="15.5015" x2="21.9243" y2="3.32603" gradientUnits="userSpaceOnUse">
<stop offset="0.145833" stop-color="#C8A039"/>
<stop offset="0.328125" stop-color="#E9C786"/>
<stop offset="0.9375" stop-color="#A6681F"/>
</linearGradient>
<linearGradient id="paint2_linear_352_1003" x1="4" y1="21.5015" x2="21.9243" y2="9.32603" gradientUnits="userSpaceOnUse">
<stop offset="0.145833" stop-color="#C8A039"/>
<stop offset="0.328125" stop-color="#E9C786"/>
<stop offset="0.9375" stop-color="#A6681F"/>
</linearGradient>
<linearGradient id="paint3_linear_352_1003" x1="24.3979" y1="29.5596" x2="17.207" y2="16.2069" gradientUnits="userSpaceOnUse">
<stop offset="0.265625" stop-color="#6F6F6F"/>
<stop offset="0.450626" stop-color="white"/>
<stop offset="0.640625" stop-color="#D3D3D3"/>
<stop offset="0.716202" stop-color="#686867"/>
</linearGradient>
<clipPath id="clip0_352_1003">
<rect width="32" height="32" fill="white"/>
</clipPath>
</defs>
</svg>
