<svg width="32" height="32" viewBox="0 0 32 32" fill="none" xmlns="http://www.w3.org/2000/svg">
<g filter="url(#filter0_di)">
<path d="M16 8.7619L24.7692 14L28 14L28 10.9697L16.9231 4L15.0769 4L4 10.9697L4 14L8.15385 14L16 8.7619Z" fill="url(#paint0_linear)"/>
<path d="M24.5128 14.4293L24.6313 14.5L24.7692 14.5L28 14.5L28.5 14.5L28.5 14L28.5 10.9697L28.5 10.6936L28.2663 10.5465L17.1894 3.5768L17.0673 3.5L16.9231 3.5L15.0769 3.5L14.9327 3.5L14.8106 3.5768L3.73372 10.5465L3.5 10.6936L3.5 10.9697L3.5 14L3.5 14.5L4 14.5L8.15385 14.5L8.30541 14.5L8.43147 14.4158L16.0148 9.35318L24.5128 14.4293Z" stroke="#140E08"/>
</g>
<g filter="url(#filter1_di)">
<path d="M16 14.7619L24.7692 20L28 20L28 16.9697L16.9231 10L15.0769 10L4 16.9697L4 20L8.15385 20L16 14.7619Z" fill="url(#paint1_linear)"/>
<path d="M24.5128 20.4293L24.6313 20.5L24.7692 20.5L28 20.5L28.5 20.5L28.5 20L28.5 16.9697L28.5 16.6936L28.2663 16.5465L17.1894 9.5768L17.0673 9.5L16.9231 9.5L15.0769 9.5L14.9327 9.5L14.8106 9.5768L3.73372 16.5465L3.5 16.6936L3.5 16.9697L3.5 20L3.5 20.5L4 20.5L8.15385 20.5L8.30541 20.5L8.43147 20.4158L16.0148 15.3532L24.5128 20.4293Z" stroke="#140E08"/>
</g>
<g filter="url(#filter2_di)">
<path d="M16.9565 17H15.1304L6 23.2222L15.1304 29H17.2L26.5 23.2222L16.9565 17Z" fill="url(#paint2_linear)"/>
<path d="M15.1304 16.5H14.9763L14.8489 16.5868L5.71843 22.809L5.08942 23.2377L5.73263 23.6447L14.8631 29.4225L14.9855 29.5H15.1304H17.2H17.3427L17.4639 29.4247L26.7639 23.6469L27.4311 23.2324L26.7731 22.8034L17.2296 16.5812L17.1051 16.5H16.9565H15.1304Z" stroke="#140E08"/>
</g>
<defs>
<filter id="filter0_di" x="3" y="3" width="26" height="13" filterUnits="userSpaceOnUse" color-interpolation-filters="sRGB">
<feFlood flood-opacity="0" result="BackgroundImageFix"/>
<feColorMatrix in="SourceAlpha" type="matrix" values="0 0 0 0 0 0 0 0 0 0 0 0 0 0 0 0 0 0 127 0"/>
<feOffset dy="1"/>
<feColorMatrix type="matrix" values="0 0 0 0 0.152941 0 0 0 0 0.0823529 0 0 0 0 0.0117647 0 0 0 1 0"/>
<feBlend mode="normal" in2="BackgroundImageFix" result="effect1_dropShadow"/>
<feBlend mode="normal" in="SourceGraphic" in2="effect1_dropShadow" result="shape"/>
<feColorMatrix in="SourceAlpha" type="matrix" values="0 0 0 0 0 0 0 0 0 0 0 0 0 0 0 0 0 0 127 0" result="hardAlpha"/>
<feOffset dy="-2"/>
<feComposite in2="hardAlpha" operator="arithmetic" k2="-1" k3="1"/>
<feColorMatrix type="matrix" values="0 0 0 0 0.240243 0 0 0 0 0.267479 0 0 0 0 0.308333 0 0 0 1 0"/>
<feBlend mode="normal" in2="shape" result="effect2_innerShadow"/>
</filter>
<filter id="filter1_di" x="3" y="9" width="26" height="13" filterUnits="userSpaceOnUse" color-interpolation-filters="sRGB">
<feFlood flood-opacity="0" result="BackgroundImageFix"/>
<feColorMatrix in="SourceAlpha" type="matrix" values="0 0 0 0 0 0 0 0 0 0 0 0 0 0 0 0 0 0 127 0"/>
<feOffset dy="1"/>
<feColorMatrix type="matrix" values="0 0 0 0 0.152941 0 0 0 0 0.0823529 0 0 0 0 0.0117647 0 0 0 1 0"/>
<feBlend mode="normal" in2="BackgroundImageFix" result="effect1_dropShadow"/>
<feBlend mode="normal" in="SourceGraphic" in2="effect1_dropShadow" result="shape"/>
<feColorMatrix in="SourceAlpha" type="matrix" values="0 0 0 0 0 0 0 0 0 0 0 0 0 0 0 0 0 0 127 0" result="hardAlpha"/>
<feOffset dy="-2"/>
<feComposite in2="hardAlpha" operator="arithmetic" k2="-1" k3="1"/>
<feColorMatrix type="matrix" values="0 0 0 0 0.240243 0 0 0 0 0.267479 0 0 0 0 0.308333 0 0 0 1 0"/>
<feBlend mode="normal" in2="shape" result="effect2_innerShadow"/>
</filter>
<filter id="filter2_di" x="4.17883" y="16" width="24.1834" height="15" filterUnits="userSpaceOnUse" color-interpolation-filters="sRGB">
<feFlood flood-opacity="0" result="BackgroundImageFix"/>
<feColorMatrix in="SourceAlpha" type="matrix" values="0 0 0 0 0 0 0 0 0 0 0 0 0 0 0 0 0 0 127 0"/>
<feOffset dy="1"/>
<feColorMatrix type="matrix" values="0 0 0 0 0.152941 0 0 0 0 0.0823529 0 0 0 0 0.0117647 0 0 0 1 0"/>
<feBlend mode="normal" in2="BackgroundImageFix" result="effect1_dropShadow"/>
<feBlend mode="normal" in="SourceGraphic" in2="effect1_dropShadow" result="shape"/>
<feColorMatrix in="SourceAlpha" type="matrix" values="0 0 0 0 0 0 0 0 0 0 0 0 0 0 0 0 0 0 127 0" result="hardAlpha"/>
<feOffset dy="-2"/>
<feComposite in2="hardAlpha" operator="arithmetic" k2="-1" k3="1"/>
<feColorMatrix type="matrix" values="0 0 0 0 0.240243 0 0 0 0 0.267479 0 0 0 0 0.308333 0 0 0 1 0"/>
<feBlend mode="normal" in2="shape" result="effect2_innerShadow"/>
</filter>
<linearGradient id="paint0_linear" x1="25.1192" y1="5.02543" x2="19.2555" y2="17.9723" gradientUnits="userSpaceOnUse">
<stop offset="0.265625" stop-color="#9F9F9F"/>
<stop offset="0.450626" stop-color="white"/>
<stop offset="0.623106" stop-color="#EBEBEA"/>
<stop offset="0.716202" stop-color="#9B9A98"/>
</linearGradient>
<linearGradient id="paint1_linear" x1="25.1192" y1="11.0254" x2="19.2555" y2="23.9723" gradientUnits="userSpaceOnUse">
<stop offset="0.265625" stop-color="#9F9F9F"/>
<stop offset="0.450626" stop-color="white"/>
<stop offset="0.623106" stop-color="#EBEBEA"/>
<stop offset="0.716202" stop-color="#9B9A98"/>
</linearGradient>
<linearGradient id="paint2_linear" x1="24.3979" y1="27.5596" x2="17.207" y2="14.2069" gradientUnits="userSpaceOnUse">
<stop offset="0.265625" stop-color="#9F9F9F"/>
<stop offset="0.450626" stop-color="white"/>
<stop offset="0.623106" stop-color="#EBEBEA"/>
<stop offset="0.716202" stop-color="#9B9A98"/>
</linearGradient>
</defs>
</svg>
