<svg width="32" height="32" viewBox="0 0 32 32" fill="none" xmlns="http://www.w3.org/2000/svg">
<g clip-path="url(#clip0_352_1010)">
<g filter="url(#filter0_di_352_1010)">
<path d="M16 5.7619L24.7692 11L28 11L28 7.9697L16.9231 1L15.0769 1L4 7.9697L4 11L8.15385 11L16 5.7619Z" fill="url(#paint0_linear_352_1010)"/>
<path d="M17.0674 0.5L17.1895 0.577148L28.2666 7.54687L28.5 7.69336L28.5 11.5L24.6309 11.5L24.5127 11.4297L16.0137 6.35352L8.43164 11.416L8.30566 11.5L3.5 11.5L3.5 7.69336L3.7334 7.54688L14.8105 0.577148L14.9326 0.5L17.0674 0.5Z" stroke="#140E08"/>
</g>
<g filter="url(#filter1_di_352_1010)">
<path d="M16 11.7619L24.7692 17L28 17L28 13.9697L16.9231 7L15.0769 7L4 13.9697L4 17L8.15385 17L16 11.7619Z" fill="url(#paint1_linear_352_1010)"/>
<path d="M17.0674 6.5L17.1895 6.57715L28.2666 13.5469L28.5 13.6934L28.5 17.5L24.6309 17.5L24.5127 17.4297L16.0137 12.3535L8.43164 17.416L8.30566 17.5L3.5 17.5L3.5 13.6934L3.7334 13.5469L14.8105 6.57715L14.9326 6.5L17.0674 6.5Z" stroke="#140E08"/>
</g>
<g filter="url(#filter2_di_352_1010)">
<path d="M16 17.7619L24.7692 23L28 23L28 19.9697L16.9231 13L15.0769 13L4 19.9697L4 23L8.15385 23L16 17.7619Z" fill="url(#paint2_linear_352_1010)"/>
<path d="M17.0674 12.5L17.1895 12.5771L28.2666 19.5469L28.5 19.6934L28.5 23.5L24.6309 23.5L24.5127 23.4297L16.0137 18.3535L8.43164 23.416L8.30566 23.5L3.5 23.5L3.5 19.6934L3.7334 19.5469L14.8105 12.5771L14.9326 12.5L17.0674 12.5Z" stroke="#140E08"/>
</g>
<g filter="url(#filter3_di_352_1010)">
<path d="M16.9565 19H15.1304L6 25.2222L15.1304 31H17.2L26.5 25.2222L16.9565 19Z" fill="url(#paint3_linear_352_1010)"/>
<path d="M16.9565 19H15.1304L6 25.2222L15.1304 31H17.2L26.5 25.2222L16.9565 19Z" stroke="#140E08"/>
</g>
<g filter="url(#filter4_di_352_1010)">
<path d="M3 23L15 31H3V23Z" fill="url(#paint4_linear_352_1010)"/>
<path d="M13.3486 30.5H3.5V23.9336L13.3486 30.5Z" stroke="#140E08"/>
</g>
<g filter="url(#filter5_di_352_1010)">
<path d="M29 23L17 31H29V23Z" fill="url(#paint5_linear_352_1010)"/>
<path d="M18.6514 30.5H28.5V23.9336L18.6514 30.5Z" stroke="#140E08"/>
</g>
</g>
<defs>
<filter id="filter0_di_352_1010" x="3" y="0" width="26" height="13" filterUnits="userSpaceOnUse" color-interpolation-filters="sRGB">
<feFlood flood-opacity="0" result="BackgroundImageFix"/>
<feColorMatrix in="SourceAlpha" type="matrix" values="0 0 0 0 0 0 0 0 0 0 0 0 0 0 0 0 0 0 127 0" result="hardAlpha"/>
<feOffset dy="1"/>
<feColorMatrix type="matrix" values="0 0 0 0 0.2 0 0 0 0 0.2 0 0 0 0 0.2 0 0 0 1 0"/>
<feBlend mode="normal" in2="BackgroundImageFix" result="effect1_dropShadow_352_1010"/>
<feBlend mode="normal" in="SourceGraphic" in2="effect1_dropShadow_352_1010" result="shape"/>
<feColorMatrix in="SourceAlpha" type="matrix" values="0 0 0 0 0 0 0 0 0 0 0 0 0 0 0 0 0 0 127 0" result="hardAlpha"/>
<feOffset dy="-2"/>
<feComposite in2="hardAlpha" operator="arithmetic" k2="-1" k3="1"/>
<feColorMatrix type="matrix" values="0 0 0 0 0.304167 0 0 0 0 0.304167 0 0 0 0 0.304167 0 0 0 1 0"/>
<feBlend mode="normal" in2="shape" result="effect2_innerShadow_352_1010"/>
</filter>
<filter id="filter1_di_352_1010" x="3" y="6" width="26" height="13" filterUnits="userSpaceOnUse" color-interpolation-filters="sRGB">
<feFlood flood-opacity="0" result="BackgroundImageFix"/>
<feColorMatrix in="SourceAlpha" type="matrix" values="0 0 0 0 0 0 0 0 0 0 0 0 0 0 0 0 0 0 127 0" result="hardAlpha"/>
<feOffset dy="1"/>
<feColorMatrix type="matrix" values="0 0 0 0 0.2 0 0 0 0 0.2 0 0 0 0 0.2 0 0 0 1 0"/>
<feBlend mode="normal" in2="BackgroundImageFix" result="effect1_dropShadow_352_1010"/>
<feBlend mode="normal" in="SourceGraphic" in2="effect1_dropShadow_352_1010" result="shape"/>
<feColorMatrix in="SourceAlpha" type="matrix" values="0 0 0 0 0 0 0 0 0 0 0 0 0 0 0 0 0 0 127 0" result="hardAlpha"/>
<feOffset dy="-2"/>
<feComposite in2="hardAlpha" operator="arithmetic" k2="-1" k3="1"/>
<feColorMatrix type="matrix" values="0 0 0 0 0.304167 0 0 0 0 0.304167 0 0 0 0 0.304167 0 0 0 1 0"/>
<feBlend mode="normal" in2="shape" result="effect2_innerShadow_352_1010"/>
</filter>
<filter id="filter2_di_352_1010" x="3" y="12" width="26" height="13" filterUnits="userSpaceOnUse" color-interpolation-filters="sRGB">
<feFlood flood-opacity="0" result="BackgroundImageFix"/>
<feColorMatrix in="SourceAlpha" type="matrix" values="0 0 0 0 0 0 0 0 0 0 0 0 0 0 0 0 0 0 127 0" result="hardAlpha"/>
<feOffset dy="1"/>
<feColorMatrix type="matrix" values="0 0 0 0 0.2 0 0 0 0 0.2 0 0 0 0 0.2 0 0 0 1 0"/>
<feBlend mode="normal" in2="BackgroundImageFix" result="effect1_dropShadow_352_1010"/>
<feBlend mode="normal" in="SourceGraphic" in2="effect1_dropShadow_352_1010" result="shape"/>
<feColorMatrix in="SourceAlpha" type="matrix" values="0 0 0 0 0 0 0 0 0 0 0 0 0 0 0 0 0 0 127 0" result="hardAlpha"/>
<feOffset dy="-2"/>
<feComposite in2="hardAlpha" operator="arithmetic" k2="-1" k3="1"/>
<feColorMatrix type="matrix" values="0 0 0 0 0.304167 0 0 0 0 0.304167 0 0 0 0 0.304167 0 0 0 1 0"/>
<feBlend mode="normal" in2="shape" result="effect2_innerShadow_352_1010"/>
</filter>
<filter id="filter3_di_352_1010" x="5.08936" y="18.5" width="22.3418" height="14" filterUnits="userSpaceOnUse" color-interpolation-filters="sRGB">
<feFlood flood-opacity="0" result="BackgroundImageFix"/>
<feColorMatrix in="SourceAlpha" type="matrix" values="0 0 0 0 0 0 0 0 0 0 0 0 0 0 0 0 0 0 127 0" result="hardAlpha"/>
<feOffset dy="1"/>
<feColorMatrix type="matrix" values="0 0 0 0 0.2 0 0 0 0 0.2 0 0 0 0 0.2 0 0 0 1 0"/>
<feBlend mode="normal" in2="BackgroundImageFix" result="effect1_dropShadow_352_1010"/>
<feBlend mode="normal" in="SourceGraphic" in2="effect1_dropShadow_352_1010" result="shape"/>
<feColorMatrix in="SourceAlpha" type="matrix" values="0 0 0 0 0 0 0 0 0 0 0 0 0 0 0 0 0 0 127 0" result="hardAlpha"/>
<feOffset dy="-2"/>
<feComposite in2="hardAlpha" operator="arithmetic" k2="-1" k3="1"/>
<feColorMatrix type="matrix" values="0 0 0 0 0.304167 0 0 0 0 0.304167 0 0 0 0 0.304167 0 0 0 1 0"/>
<feBlend mode="normal" in2="shape" result="effect2_innerShadow_352_1010"/>
</filter>
<filter id="filter4_di_352_1010" x="3" y="23" width="12" height="9" filterUnits="userSpaceOnUse" color-interpolation-filters="sRGB">
<feFlood flood-opacity="0" result="BackgroundImageFix"/>
<feColorMatrix in="SourceAlpha" type="matrix" values="0 0 0 0 0 0 0 0 0 0 0 0 0 0 0 0 0 0 127 0" result="hardAlpha"/>
<feOffset dy="1"/>
<feColorMatrix type="matrix" values="0 0 0 0 0.2 0 0 0 0 0.2 0 0 0 0 0.2 0 0 0 1 0"/>
<feBlend mode="normal" in2="BackgroundImageFix" result="effect1_dropShadow_352_1010"/>
<feBlend mode="normal" in="SourceGraphic" in2="effect1_dropShadow_352_1010" result="shape"/>
<feColorMatrix in="SourceAlpha" type="matrix" values="0 0 0 0 0 0 0 0 0 0 0 0 0 0 0 0 0 0 127 0" result="hardAlpha"/>
<feOffset dy="-2"/>
<feComposite in2="hardAlpha" operator="arithmetic" k2="-1" k3="1"/>
<feColorMatrix type="matrix" values="0 0 0 0 0.608333 0 0 0 0 0.385633 0 0 0 0 0.124201 0 0 0 1 0"/>
<feBlend mode="normal" in2="shape" result="effect2_innerShadow_352_1010"/>
</filter>
<filter id="filter5_di_352_1010" x="17" y="23" width="12" height="9" filterUnits="userSpaceOnUse" color-interpolation-filters="sRGB">
<feFlood flood-opacity="0" result="BackgroundImageFix"/>
<feColorMatrix in="SourceAlpha" type="matrix" values="0 0 0 0 0 0 0 0 0 0 0 0 0 0 0 0 0 0 127 0" result="hardAlpha"/>
<feOffset dy="1"/>
<feColorMatrix type="matrix" values="0 0 0 0 0.2 0 0 0 0 0.2 0 0 0 0 0.2 0 0 0 1 0"/>
<feBlend mode="normal" in2="BackgroundImageFix" result="effect1_dropShadow_352_1010"/>
<feBlend mode="normal" in="SourceGraphic" in2="effect1_dropShadow_352_1010" result="shape"/>
<feColorMatrix in="SourceAlpha" type="matrix" values="0 0 0 0 0 0 0 0 0 0 0 0 0 0 0 0 0 0 127 0" result="hardAlpha"/>
<feOffset dy="-2"/>
<feComposite in2="hardAlpha" operator="arithmetic" k2="-1" k3="1"/>
<feColorMatrix type="matrix" values="0 0 0 0 0.608333 0 0 0 0 0.385633 0 0 0 0 0.124201 0 0 0 1 0"/>
<feBlend mode="normal" in2="shape" result="effect2_innerShadow_352_1010"/>
</filter>
<linearGradient id="paint0_linear_352_1010" x1="26.5" y1="10.4244" x2="10.4856" y2="-19.675" gradientUnits="userSpaceOnUse">
<stop offset="0.1875" stop-color="#8C8C8C"/>
<stop offset="0.390625" stop-color="#EAEAEA"/>
<stop offset="0.661458" stop-color="#C9C9C9"/>
<stop offset="0.822917" stop-color="#A4A4A4"/>
</linearGradient>
<linearGradient id="paint1_linear_352_1010" x1="26.5" y1="16.4244" x2="10.4856" y2="-13.675" gradientUnits="userSpaceOnUse">
<stop offset="0.1875" stop-color="#8C8C8C"/>
<stop offset="0.390625" stop-color="#EAEAEA"/>
<stop offset="0.661458" stop-color="#C9C9C9"/>
<stop offset="0.822917" stop-color="#A4A4A4"/>
</linearGradient>
<linearGradient id="paint2_linear_352_1010" x1="26.5" y1="22.4244" x2="10.4856" y2="-7.67501" gradientUnits="userSpaceOnUse">
<stop offset="0.1875" stop-color="#8C8C8C"/>
<stop offset="0.390625" stop-color="#EAEAEA"/>
<stop offset="0.661458" stop-color="#C9C9C9"/>
<stop offset="0.822917" stop-color="#A4A4A4"/>
</linearGradient>
<linearGradient id="paint3_linear_352_1010" x1="24.3979" y1="29.5596" x2="17.207" y2="16.2069" gradientUnits="userSpaceOnUse">
<stop offset="0.265625" stop-color="#6F6F6F"/>
<stop offset="0.450626" stop-color="white"/>
<stop offset="0.640625" stop-color="#D3D3D3"/>
<stop offset="0.716202" stop-color="#686867"/>
</linearGradient>
<linearGradient id="paint4_linear_352_1010" x1="3.69069" y1="30.5" x2="7.69199" y2="19.9102" gradientUnits="userSpaceOnUse">
<stop offset="0.1875" stop-color="#D29725"/>
<stop offset="0.390625" stop-color="#FFDE6B"/>
<stop offset="0.661458" stop-color="#FBCA4D"/>
<stop offset="0.822917" stop-color="#D68408"/>
</linearGradient>
<linearGradient id="paint5_linear_352_1010" x1="28.3093" y1="30.5" x2="24.308" y2="19.9102" gradientUnits="userSpaceOnUse">
<stop offset="0.1875" stop-color="#D29725"/>
<stop offset="0.390625" stop-color="#FFDE6B"/>
<stop offset="0.661458" stop-color="#FBCA4D"/>
<stop offset="0.822917" stop-color="#D68408"/>
</linearGradient>
<clipPath id="clip0_352_1010">
<rect width="32" height="32" fill="white"/>
</clipPath>
</defs>
</svg>
