<svg width="32" height="32" viewBox="0 0 32 32" fill="none" xmlns="http://www.w3.org/2000/svg">
<g filter="url(#filter0_d_352_1019)">
<mask id="path-1-outside-1_352_1019" maskUnits="userSpaceOnUse" x="1" y="2" width="29" height="28" fill="black">
<rect fill="white" x="1" y="2" width="29" height="28"/>
<path d="M20 11.667H29V20.333H20V29H11V20.333H2V11.667H11V3H20V11.667Z"/>
</mask>
<path d="M20 11.667H29V20.333H20V29H11V20.333H2V11.667H11V3H20V11.667Z" fill="url(#paint0_linear_352_1019)"/>
<path d="M20 11.667H19V12.667H20V11.667ZM29 11.667H30V10.667H29V11.667ZM29 20.333V21.333H30V20.333H29ZM20 20.333V19.333H19V20.333H20ZM20 29V30H21V29H20ZM11 29H10V30H11V29ZM11 20.333H12V19.333H11V20.333ZM2 20.333H1V21.333H2V20.333ZM2 11.667V10.667H1V11.667H2ZM11 11.667V12.667H12V11.667H11ZM11 3V2H10V3H11ZM20 3H21V2H20V3ZM20 11.667V12.667H29V11.667V10.667H20V11.667ZM29 11.667H28V20.333H29H30V11.667H29ZM29 20.333V19.333H20V20.333V21.333H29V20.333ZM20 20.333H19V29H20H21V20.333H20ZM20 29V28H11V29V30H20V29ZM11 29H12V20.333H11H10V29H11ZM11 20.333V19.333H2V20.333V21.333H11V20.333ZM2 20.333H3V11.667H2H1V20.333H2ZM2 11.667V12.667H11V11.667V10.667H2V11.667ZM11 11.667H12V3H11H10V11.667H11ZM11 3V4H20V3V2H11V3ZM20 3H19V11.667H20H21V3H20Z" fill="#140E08" mask="url(#path-1-outside-1_352_1019)"/>
</g>
<g filter="url(#filter1_i_352_1019)">
<path d="M29 11L21 3L21 11L29 11Z" fill="url(#paint1_linear_352_1019)"/>
</g>
<path d="M21.5 4.20703L21.5 10.5L27.793 10.5L21.5 4.20703Z" stroke="#140E08"/>
<g filter="url(#filter2_i_352_1019)">
<path d="M29 21L21 29L21 21L29 21Z" fill="url(#paint2_linear_352_1019)"/>
</g>
<path d="M21.5 27.793L21.5 21.5L27.793 21.5L21.5 27.793Z" stroke="#140E08"/>
<g filter="url(#filter3_i_352_1019)">
<path d="M2 11L10 3L10 11L2 11Z" fill="url(#paint3_linear_352_1019)"/>
</g>
<path d="M9.5 4.20703L9.5 10.5L3.20703 10.5L9.5 4.20703Z" stroke="#140E08"/>
<g filter="url(#filter4_i_352_1019)">
<path d="M2 21L10 29L10 21L2 21Z" fill="url(#paint4_linear_352_1019)"/>
</g>
<path d="M9.5 27.793L9.5 21.5L3.20703 21.5L9.5 27.793Z" stroke="#140E08"/>
<defs>
<filter id="filter0_d_352_1019" x="1" y="2" width="29" height="29" filterUnits="userSpaceOnUse" color-interpolation-filters="sRGB">
<feFlood flood-opacity="0" result="BackgroundImageFix"/>
<feColorMatrix in="SourceAlpha" type="matrix" values="0 0 0 0 0 0 0 0 0 0 0 0 0 0 0 0 0 0 127 0" result="hardAlpha"/>
<feOffset dy="1"/>
<feColorMatrix type="matrix" values="0 0 0 0 0.152941 0 0 0 0 0.0823529 0 0 0 0 0.0117647 0 0 0 1 0"/>
<feBlend mode="normal" in2="BackgroundImageFix" result="effect1_dropShadow_352_1019"/>
<feBlend mode="normal" in="SourceGraphic" in2="effect1_dropShadow_352_1019" result="shape"/>
</filter>
<filter id="filter1_i_352_1019" x="21" y="3" width="8" height="8" filterUnits="userSpaceOnUse" color-interpolation-filters="sRGB">
<feFlood flood-opacity="0" result="BackgroundImageFix"/>
<feBlend mode="normal" in="SourceGraphic" in2="BackgroundImageFix" result="shape"/>
<feColorMatrix in="SourceAlpha" type="matrix" values="0 0 0 0 0 0 0 0 0 0 0 0 0 0 0 0 0 0 127 0" result="hardAlpha"/>
<feOffset dy="-2"/>
<feComposite in2="hardAlpha" operator="arithmetic" k2="-1" k3="1"/>
<feColorMatrix type="matrix" values="0 0 0 0 0.608333 0 0 0 0 0.385633 0 0 0 0 0.124201 0 0 0 1 0"/>
<feBlend mode="normal" in2="shape" result="effect1_innerShadow_352_1019"/>
</filter>
<filter id="filter2_i_352_1019" x="21" y="21" width="8" height="8" filterUnits="userSpaceOnUse" color-interpolation-filters="sRGB">
<feFlood flood-opacity="0" result="BackgroundImageFix"/>
<feBlend mode="normal" in="SourceGraphic" in2="BackgroundImageFix" result="shape"/>
<feColorMatrix in="SourceAlpha" type="matrix" values="0 0 0 0 0 0 0 0 0 0 0 0 0 0 0 0 0 0 127 0" result="hardAlpha"/>
<feOffset dy="-2"/>
<feComposite in2="hardAlpha" operator="arithmetic" k2="-1" k3="1"/>
<feColorMatrix type="matrix" values="0 0 0 0 0.608333 0 0 0 0 0.385633 0 0 0 0 0.124201 0 0 0 1 0"/>
<feBlend mode="normal" in2="shape" result="effect1_innerShadow_352_1019"/>
</filter>
<filter id="filter3_i_352_1019" x="2" y="3" width="8" height="8" filterUnits="userSpaceOnUse" color-interpolation-filters="sRGB">
<feFlood flood-opacity="0" result="BackgroundImageFix"/>
<feBlend mode="normal" in="SourceGraphic" in2="BackgroundImageFix" result="shape"/>
<feColorMatrix in="SourceAlpha" type="matrix" values="0 0 0 0 0 0 0 0 0 0 0 0 0 0 0 0 0 0 127 0" result="hardAlpha"/>
<feOffset dy="-2"/>
<feComposite in2="hardAlpha" operator="arithmetic" k2="-1" k3="1"/>
<feColorMatrix type="matrix" values="0 0 0 0 0.608333 0 0 0 0 0.385633 0 0 0 0 0.124201 0 0 0 1 0"/>
<feBlend mode="normal" in2="shape" result="effect1_innerShadow_352_1019"/>
</filter>
<filter id="filter4_i_352_1019" x="2" y="21" width="8" height="8" filterUnits="userSpaceOnUse" color-interpolation-filters="sRGB">
<feFlood flood-opacity="0" result="BackgroundImageFix"/>
<feBlend mode="normal" in="SourceGraphic" in2="BackgroundImageFix" result="shape"/>
<feColorMatrix in="SourceAlpha" type="matrix" values="0 0 0 0 0 0 0 0 0 0 0 0 0 0 0 0 0 0 127 0" result="hardAlpha"/>
<feOffset dy="-2"/>
<feComposite in2="hardAlpha" operator="arithmetic" k2="-1" k3="1"/>
<feColorMatrix type="matrix" values="0 0 0 0 0.608333 0 0 0 0 0.385633 0 0 0 0 0.124201 0 0 0 1 0"/>
<feBlend mode="normal" in2="shape" result="effect1_innerShadow_352_1019"/>
</filter>
<linearGradient id="paint0_linear_352_1019" x1="26.2313" y1="25.8791" x2="7.70676" y2="4.96925" gradientUnits="userSpaceOnUse">
<stop offset="0.265625" stop-color="#9F9F9F"/>
<stop offset="0.450626" stop-color="white"/>
<stop offset="0.623106" stop-color="#EBEBEA"/>
<stop offset="0.716202" stop-color="#9B9A98"/>
</linearGradient>
<linearGradient id="paint1_linear_352_1019" x1="21.5" y1="10.5395" x2="30.6594" y2="5.34829" gradientUnits="userSpaceOnUse">
<stop offset="0.1875" stop-color="#D29725"/>
<stop offset="0.390625" stop-color="#FFDE6B"/>
<stop offset="0.661458" stop-color="#FBCA4D"/>
<stop offset="0.822917" stop-color="#D68408"/>
</linearGradient>
<linearGradient id="paint2_linear_352_1019" x1="21.5" y1="21.4605" x2="30.6594" y2="26.6517" gradientUnits="userSpaceOnUse">
<stop offset="0.1875" stop-color="#D29725"/>
<stop offset="0.390625" stop-color="#FFDE6B"/>
<stop offset="0.661458" stop-color="#FBCA4D"/>
<stop offset="0.822917" stop-color="#D68408"/>
</linearGradient>
<linearGradient id="paint3_linear_352_1019" x1="9.5" y1="10.5395" x2="0.340611" y2="5.34829" gradientUnits="userSpaceOnUse">
<stop offset="0.1875" stop-color="#D29725"/>
<stop offset="0.390625" stop-color="#FFDE6B"/>
<stop offset="0.661458" stop-color="#FBCA4D"/>
<stop offset="0.822917" stop-color="#D68408"/>
</linearGradient>
<linearGradient id="paint4_linear_352_1019" x1="9.5" y1="21.4605" x2="0.340611" y2="26.6517" gradientUnits="userSpaceOnUse">
<stop offset="0.1875" stop-color="#D29725"/>
<stop offset="0.390625" stop-color="#FFDE6B"/>
<stop offset="0.661458" stop-color="#FBCA4D"/>
<stop offset="0.822917" stop-color="#D68408"/>
</linearGradient>
</defs>
</svg>
