<svg width="32" height="32" viewBox="0 0 32 32" fill="none" xmlns="http://www.w3.org/2000/svg">
<g clip-path="url(#clip0_352_1026)">
<g filter="url(#filter0_d_352_1026)">
<rect x="2" y="15" width="2" height="28" transform="rotate(-90 2 15)" fill="url(#paint0_linear_352_1026)"/>
<rect x="1.5" y="15.5" width="3" height="29" transform="rotate(-90 1.5 15.5)" stroke="#271503"/>
</g>
<g filter="url(#filter1_d_352_1026)">
<rect x="3" y="18" width="2" height="26" transform="rotate(-90 3 18)" fill="url(#paint1_linear_352_1026)"/>
<rect x="2.5" y="18.5" width="3" height="27" transform="rotate(-90 2.5 18.5)" stroke="#271503"/>
</g>
<g filter="url(#filter2_d_352_1026)">
<path d="M4 21L4 19L28 19L28 21L22 21L16 18.5L10 21L4 21Z" fill="url(#paint2_linear_352_1026)"/>
<path d="M3.5 18.5L14.6982 18.5L15.8076 18.0381L16 17.958L16.1924 18.0381L17.3008 18.5L28.5 18.5L28.5 21.5L21.9004 21.5L21.8076 21.4619L17.0986 19.5L14.9004 19.5L10.1924 21.4619L10.0996 21.5L3.5 21.5L3.5 18.5Z" stroke="#271503"/>
</g>
<g style="mix-blend-mode:multiply" filter="url(#filter3_i_352_1026)">
<path d="M16.875 3.83333L20.375 13.2339L30 12.2778V13.1667L21.6875 18.9444L26.0625 30.5L16.875 23.8333L6.8125 30.5L6.375 30.0556L11.625 18.5L2 12.2778L13.375 13.2339L16 2.5L16.875 3.83333Z" fill="#5C3D0D"/>
</g>
<g filter="url(#filter4_di_352_1026)">
<path d="M7 6H13L16 9L19 6H25L30.5 12H1.5L7 6Z" fill="url(#paint3_linear_352_1026)"/>
<path d="M13.207 5.5L16 8.29297L18.793 5.5H25.2197L25.3682 5.66211L30.8682 11.6621L31.6367 12.5H0.363281L1.13184 11.6621L6.63184 5.66211L6.78027 5.5H13.207Z" stroke="#271503"/>
</g>
<g filter="url(#filter5_i_352_1026)">
<path d="M16 2.5L19.5 12H30L20.8125 18.1774L25.625 29.5L16 22.9677L6.375 29.5L11.1875 18.1774L2 12H12.5L16 2.5Z" fill="url(#paint4_linear_352_1026)"/>
</g>
<path d="M19.0312 12.1729L19.1514 12.5H28.3594L20.5332 17.7627L20.1904 17.9932L20.3525 18.373L24.5 28.1318L16.2812 22.5537L16 22.3633L15.7188 22.5537L7.49902 28.1318L11.6475 18.373L11.8096 17.9932L11.4668 17.7627L3.64062 12.5H12.8486L12.9688 12.1729L16 3.94434L19.0312 12.1729Z" stroke="#201103"/>
</g>
<defs>
<filter id="filter0_d_352_1026" x="1" y="12" width="30" height="5" filterUnits="userSpaceOnUse" color-interpolation-filters="sRGB">
<feFlood flood-opacity="0" result="BackgroundImageFix"/>
<feColorMatrix in="SourceAlpha" type="matrix" values="0 0 0 0 0 0 0 0 0 0 0 0 0 0 0 0 0 0 127 0" result="hardAlpha"/>
<feOffset dy="1"/>
<feColorMatrix type="matrix" values="0 0 0 0 0.152941 0 0 0 0 0.0823529 0 0 0 0 0.0117647 0 0 0 0.5 0"/>
<feBlend mode="normal" in2="BackgroundImageFix" result="effect1_dropShadow_352_1026"/>
<feBlend mode="normal" in="SourceGraphic" in2="effect1_dropShadow_352_1026" result="shape"/>
</filter>
<filter id="filter1_d_352_1026" x="2" y="15" width="28" height="5" filterUnits="userSpaceOnUse" color-interpolation-filters="sRGB">
<feFlood flood-opacity="0" result="BackgroundImageFix"/>
<feColorMatrix in="SourceAlpha" type="matrix" values="0 0 0 0 0 0 0 0 0 0 0 0 0 0 0 0 0 0 127 0" result="hardAlpha"/>
<feOffset dy="1"/>
<feColorMatrix type="matrix" values="0 0 0 0 0.152941 0 0 0 0 0.0823529 0 0 0 0 0.0117647 0 0 0 0.5 0"/>
<feBlend mode="normal" in2="BackgroundImageFix" result="effect1_dropShadow_352_1026"/>
<feBlend mode="normal" in="SourceGraphic" in2="effect1_dropShadow_352_1026" result="shape"/>
</filter>
<filter id="filter2_d_352_1026" x="3" y="17.4167" width="26" height="5.58325" filterUnits="userSpaceOnUse" color-interpolation-filters="sRGB">
<feFlood flood-opacity="0" result="BackgroundImageFix"/>
<feColorMatrix in="SourceAlpha" type="matrix" values="0 0 0 0 0 0 0 0 0 0 0 0 0 0 0 0 0 0 127 0" result="hardAlpha"/>
<feOffset dy="1"/>
<feColorMatrix type="matrix" values="0 0 0 0 0.152941 0 0 0 0 0.0823529 0 0 0 0 0.0117647 0 0 0 0.5 0"/>
<feBlend mode="normal" in2="BackgroundImageFix" result="effect1_dropShadow_352_1026"/>
<feBlend mode="normal" in="SourceGraphic" in2="effect1_dropShadow_352_1026" result="shape"/>
</filter>
<filter id="filter3_i_352_1026" x="2" y="2.5" width="28" height="28" filterUnits="userSpaceOnUse" color-interpolation-filters="sRGB">
<feFlood flood-opacity="0" result="BackgroundImageFix"/>
<feBlend mode="normal" in="SourceGraphic" in2="BackgroundImageFix" result="shape"/>
<feColorMatrix in="SourceAlpha" type="matrix" values="0 0 0 0 0 0 0 0 0 0 0 0 0 0 0 0 0 0 127 0" result="hardAlpha"/>
<feOffset/>
<feGaussianBlur stdDeviation="2"/>
<feComposite in2="hardAlpha" operator="arithmetic" k2="-1" k3="1"/>
<feColorMatrix type="matrix" values="0 0 0 0 0.141667 0 0 0 0 0.0879042 0 0 0 0 0.0247917 0 0 0 1 0"/>
<feBlend mode="normal" in2="shape" result="effect1_innerShadow_352_1026"/>
</filter>
<filter id="filter4_di_352_1026" x="-0.773193" y="5" width="33.5464" height="9" filterUnits="userSpaceOnUse" color-interpolation-filters="sRGB">
<feFlood flood-opacity="0" result="BackgroundImageFix"/>
<feColorMatrix in="SourceAlpha" type="matrix" values="0 0 0 0 0 0 0 0 0 0 0 0 0 0 0 0 0 0 127 0" result="hardAlpha"/>
<feOffset dy="1"/>
<feColorMatrix type="matrix" values="0 0 0 0 0.152941 0 0 0 0 0.0823529 0 0 0 0 0.0117647 0 0 0 1 0"/>
<feBlend mode="normal" in2="BackgroundImageFix" result="effect1_dropShadow_352_1026"/>
<feBlend mode="normal" in="SourceGraphic" in2="effect1_dropShadow_352_1026" result="shape"/>
<feColorMatrix in="SourceAlpha" type="matrix" values="0 0 0 0 0 0 0 0 0 0 0 0 0 0 0 0 0 0 127 0" result="hardAlpha"/>
<feOffset dy="-2"/>
<feComposite in2="hardAlpha" operator="arithmetic" k2="-1" k3="1"/>
<feColorMatrix type="matrix" values="0 0 0 0 0.275 0 0 0 0 0.252404 0 0 0 0 0.236042 0 0 0 1 0"/>
<feBlend mode="normal" in2="shape" result="effect2_innerShadow_352_1026"/>
</filter>
<filter id="filter5_i_352_1026" x="2" y="2.5" width="28" height="27" filterUnits="userSpaceOnUse" color-interpolation-filters="sRGB">
<feFlood flood-opacity="0" result="BackgroundImageFix"/>
<feBlend mode="normal" in="SourceGraphic" in2="BackgroundImageFix" result="shape"/>
<feColorMatrix in="SourceAlpha" type="matrix" values="0 0 0 0 0 0 0 0 0 0 0 0 0 0 0 0 0 0 127 0" result="hardAlpha"/>
<feOffset/>
<feGaussianBlur stdDeviation="2"/>
<feComposite in2="hardAlpha" operator="arithmetic" k2="-1" k3="1"/>
<feColorMatrix type="matrix" values="0 0 0 0 0.266667 0 0 0 0 0.266667 0 0 0 0 0.266667 0 0 0 1 0"/>
<feBlend mode="normal" in2="shape" result="effect1_innerShadow_352_1026"/>
</filter>
<linearGradient id="paint0_linear_352_1026" x1="1.58678" y1="41.25" x2="8.24761" y2="40.1752" gradientUnits="userSpaceOnUse">
<stop offset="0.1875" stop-color="#D29725"/>
<stop offset="0.390625" stop-color="#FFDE6B"/>
<stop offset="0.661458" stop-color="#FBCA4D"/>
<stop offset="0.822917" stop-color="#D68408"/>
</linearGradient>
<linearGradient id="paint1_linear_352_1026" x1="2.58678" y1="42.375" x2="9.22072" y2="41.2222" gradientUnits="userSpaceOnUse">
<stop offset="0.1875" stop-color="#D29725"/>
<stop offset="0.390625" stop-color="#FFDE6B"/>
<stop offset="0.661458" stop-color="#FBCA4D"/>
<stop offset="0.822917" stop-color="#D68408"/>
</linearGradient>
<linearGradient id="paint2_linear_352_1026" x1="26.5" y1="21.4132" x2="25.2575" y2="14.8129" gradientUnits="userSpaceOnUse">
<stop offset="0.1875" stop-color="#D29725"/>
<stop offset="0.390625" stop-color="#FFDE6B"/>
<stop offset="0.661458" stop-color="#FBCA4D"/>
<stop offset="0.822917" stop-color="#D68408"/>
</linearGradient>
<linearGradient id="paint3_linear_352_1026" x1="51" y1="11.64" x2="50.4759" y2="2.25294" gradientUnits="userSpaceOnUse">
<stop offset="0.265625" stop-color="#9F9F9F"/>
<stop offset="0.450626" stop-color="white"/>
<stop offset="0.623106" stop-color="#EBEBEA"/>
<stop offset="0.716202" stop-color="#9B9A98"/>
</linearGradient>
<linearGradient id="paint4_linear_352_1026" x1="25" y1="24" x2="10.1177" y2="6.96052" gradientUnits="userSpaceOnUse">
<stop offset="0.1875" stop-color="#D29725"/>
<stop offset="0.426856" stop-color="#FFDE6B"/>
<stop offset="0.598517" stop-color="#FFE49E"/>
<stop offset="0.822917" stop-color="#D68408"/>
</linearGradient>
<clipPath id="clip0_352_1026">
<rect width="32" height="32" fill="white"/>
</clipPath>
</defs>
</svg>
